<svg xmlns="http://www.w3.org/2000/svg" width="19.995" height="20" viewBox="0 0 19.995 20">
  <g id="_5303798" data-name="5303798" transform="translate(0.02 0.005)">
    <path id="Path_633" data-name="Path 633" d="M491.785,1226.59q-.006.814-.731.456-3.643-1.813-7.284-3.635a1.312,1.312,0,0,1-.79-1.276q.009-6.827.006-13.656a1.2,1.2,0,0,1,1.3-1.319q5.3-.009,10.6,0a1.2,1.2,0,0,1,1.3,1.269c.013.984,0,1.968,0,2.951,0,.3-.058.568-.407.562s-.4-.283-.4-.576c.005-.933-.008-1.868.006-2.8,0-.416-.148-.612-.583-.611q-4.877.011-9.754,0a1.507,1.507,0,0,0-.21.045c.219.111.373.193.531.268,1.956.928,3.9,1.867,5.871,2.773a.824.824,0,0,1,.547.878c-.017,3.3-.01,6.6-.01,9.9v.54c1.064,0,2.048-.008,3.03,0,.439.006.584-.2.578-.616-.014-.933,0-1.867-.006-2.8,0-.291.046-.57.4-.572s.406.271.4.567c-.005.933,0,1.867,0,2.8a1.238,1.238,0,0,1-1.4,1.417h-3C491.785,1224.358,491.8,1225.473,491.785,1226.59Zm-.8-1.044q0-6.622.01-13.244a.645.645,0,0,0-.445-.7c-2.232-1.035-4.451-2.095-6.731-3.174-.015.184-.037.32-.037.457q0,6.547-.007,13.094a.719.719,0,0,0,.416.761c2.179,1.074,4.35,2.165,6.524,3.249a2.515,2.515,0,0,0,.27.094Z" transform="translate(-483 -1207.16)" fill="#cc8946"/>
    <path id="Path_634" data-name="Path 634" d="M595.571,1251.568l-2.6,2.593c-.106.106-.266.2-.3.324a.773.773,0,0,0,.022.559c.051.079.358.057.512-.009s.268-.242.4-.372c1.013-1.012,2.018-2.035,3.043-3.034.336-.327.356-.574.01-.911-1.108-1.082-2.2-2.186-3.29-3.282-.213-.214-.44-.416-.717-.127-.254.266-.06.483.139.681.9.891,1.791,1.784,2.791,2.779h-7.489c-.149,0-.328-.041-.441.026a.618.618,0,0,0-.3.392c-.011.111.154.282.282.349a.971.971,0,0,0,.442.03Z" transform="translate(-576.933 -1243.167)" fill="#cc8946"/>
  </g>
</svg>
