<svg xmlns="http://www.w3.org/2000/svg" width="20.707" height="20.707" viewBox="0 0 20.707 20.707">
  <g id="account" transform="translate(0.25 0.25)">
    <path id="Path_176" data-name="Path 176" d="M20.207,10.093a10.1,10.1,0,1,0-16.63,7.692c.02.02.04.02.04.04.182.141.364.283.566.424a2.7,2.7,0,0,1,.283.221,10.086,10.086,0,0,0,11.318,0c.1-.059.18-.139.281-.2.182-.14.384-.282.566-.423.02-.02.04-.02.04-.04a10.274,10.274,0,0,0,3.536-7.712ZM10.1,18.935A8.769,8.769,0,0,1,5.032,17.32a4.121,4.121,0,0,1,.1-.484,5.267,5.267,0,0,1,.525-1.252,4.444,4.444,0,0,1,.808-1.031A5.673,5.673,0,0,1,7.5,13.746a5.1,5.1,0,0,1,1.233-.505A5.371,5.371,0,0,1,13.8,14.534a5.058,5.058,0,0,1,1.091,1.636,5.369,5.369,0,0,1,.3,1.151A8.879,8.879,0,0,1,10.1,18.935ZM7.012,9.589A3.312,3.312,0,0,1,7.012,7a3.446,3.446,0,0,1,1.8-1.8A3.151,3.151,0,0,1,10.1,4.945a3.086,3.086,0,0,1,1.293.263A3.446,3.446,0,0,1,13.2,7,3.15,3.15,0,0,1,13.458,8.3,3.077,3.077,0,0,1,13.2,9.588a3.443,3.443,0,0,1-1.8,1.8,3.429,3.429,0,0,1-2.607,0,3.587,3.587,0,0,1-1.071-.726,3.19,3.19,0,0,1-.707-1.071Zm9.376,6.7c0-.04-.02-.061-.02-.1a6.593,6.593,0,0,0-.869-1.775,6.167,6.167,0,0,0-1.374-1.434,6.576,6.576,0,0,0-1.313-.768,3.561,3.561,0,0,0,.586-.484,5.3,5.3,0,0,0,.788-.99A4.577,4.577,0,0,0,14.852,8.3a4.686,4.686,0,0,0-.364-1.857,4.8,4.8,0,0,0-1.031-1.514,4.856,4.856,0,0,0-1.516-1.01,4.94,4.94,0,0,0-3.718,0A4.586,4.586,0,0,0,6.709,4.945,4.85,4.85,0,0,0,5.7,6.459a4.686,4.686,0,0,0-.364,1.857,4.394,4.394,0,0,0,.182,1.272,4.645,4.645,0,0,0,.505,1.171,4.592,4.592,0,0,0,.788.99,3.541,3.541,0,0,0,.606.484,6.466,6.466,0,0,0-1.313.788,7,7,0,0,0-1.374,1.413A6.314,6.314,0,0,0,3.86,16.21a.22.22,0,0,0-.02.1,8.838,8.838,0,1,1,15.115-6.218,8.79,8.79,0,0,1-2.566,6.2Z" fill="#cc8946" stroke="#fff" stroke-width="0.5"/>
  </g>
</svg>
