<svg xmlns="http://www.w3.org/2000/svg" width="21.241" height="21.241" viewBox="0 0 21.241 21.241">
  <g id="calendar" transform="translate(-0.01 -0.01)">
    <path id="Path_164" data-name="Path 164" d="M99.461-94.957c0-.271-.005-.507,0-.743a1.416,1.416,0,0,1,1.416-1.381,1.416,1.416,0,0,1,1.416,1.382c.006.236,0,.472,0,.724h2.831V-95.6a1.419,1.419,0,0,1,1.407-1.478,1.419,1.419,0,0,1,1.425,1.483v.628h2.831c0-.24-.006-.487,0-.734a1.41,1.41,0,0,1,.662-1.16,1.41,1.41,0,0,1,1.333-.087,1.364,1.364,0,0,1,.831,1.235c.014.242,0,.485,0,.76h.267a16.832,16.832,0,0,1,1.829.047,1.684,1.684,0,0,1,1.446,1.686q.009,4.591.006,9.185c0,.257-.146.417-.36.413s-.346-.163-.346-.426v-5.937H96.634v10.832a1.078,1.078,0,0,0,1.187,1.2h9.6a1.445,1.445,0,0,1,.221,0,.341.341,0,0,1,.315.342.348.348,0,0,1-.322.359,1.473,1.473,0,0,1-.177,0H97.786a1.768,1.768,0,0,1-1.866-1.857V-93.1a1.769,1.769,0,0,1,1.863-1.86Zm2.831.713v.636a1.42,1.42,0,0,1-1.425,1.483A1.42,1.42,0,0,1,99.461-93.6v-.644H97.75a1.059,1.059,0,0,0-1.121,1.126q0,1.106,0,2.213c0,.063.008.127.012.183h19.812c0-.844.008-1.67,0-2.5a1.009,1.009,0,0,0-.91-1.008c-.629-.04-1.264-.009-1.918-.009v.668a1.417,1.417,0,0,1-1.416,1.446,1.422,1.422,0,0,1-1.416-1.451v-.658h-2.831c0,.251.005.486,0,.721a1.348,1.348,0,0,1-.48,1.031,1.342,1.342,0,0,1-1.506.229,1.359,1.359,0,0,1-.846-1.271c-.01-.24,0-.48,0-.72Zm-2.124-.381v1.039a.713.713,0,0,0,.7.752.711.711,0,0,0,.712-.741q.006-1.028,0-2.057a.708.708,0,0,0-.713-.74.71.71,0,0,0-.7.752c0,.332,0,.663,0,1Zm5.663,0v1.039a.713.713,0,0,0,.7.749.708.708,0,0,0,.708-.744q.005-1.028,0-2.057a.707.707,0,0,0-.716-.737.7.7,0,0,0-.694.733C105.828-95.3,105.831-94.961,105.831-94.622Zm5.663,0v1.062a.712.712,0,0,0,.708.722.708.708,0,0,0,.7-.727q.008-1.039,0-2.079a.708.708,0,0,0-.7-.733.709.709,0,0,0-.716.737c0,.339.006.678.006,1.018Z" transform="translate(-95.91 97.09)" fill="#cc8946"/>
    <path id="Path_165" data-name="Path 165" d="M304.581,116.183a4.6,4.6,0,1,1,4.582-4.621A4.6,4.6,0,0,1,304.581,116.183Zm3.876-4.6a3.893,3.893,0,1,0-3.886,3.887A3.9,3.9,0,0,0,308.457,111.588Z" transform="translate(-287.914 -94.933)" fill="#cc8946"/>
    <path id="Path_166" data-name="Path 166" d="M145.276,55.393c-.229,0-.457,0-.685,0a.7.7,0,0,1-.722-.708c-.007-.354-.007-.708,0-1.062a.7.7,0,0,1,.7-.708c.472-.008.944-.006,1.416,0a.7.7,0,0,1,.711.718c.006.347.006.693,0,1.04a.7.7,0,0,1-.714.719Zm.7-.72V53.638h-1.389v1.035Z" transform="translate(-141.026 -44.052)" fill="#cc8946"/>
    <path id="Path_167" data-name="Path 167" d="M217.321,52.937c.228,0,.457-.005.685,0a.7.7,0,0,1,.708.7q.012.542,0,1.084a.7.7,0,0,1-.694.69q-.718.012-1.438,0a.7.7,0,0,1-.7-.691c-.009-.369-.01-.738,0-1.106a.693.693,0,0,1,.682-.678C216.819,52.928,217.07,52.937,217.321,52.937Zm-.714.717v1.041h1.387V53.652Z" transform="translate(-208.794 -44.074)" fill="#cc8946"/>
    <path id="Path_168" data-name="Path 168" d="M289.327,52.95c.228,0,.457,0,.685,0a.7.7,0,0,1,.708.7c.008.361.009.723,0,1.084a.7.7,0,0,1-.693.691q-.718.013-1.438,0a.7.7,0,0,1-.7-.708c-.006-.354-.007-.708,0-1.062a.7.7,0,0,1,.7-.7C288.838,52.943,289.084,52.95,289.327,52.95ZM290,54.711V53.669h-1.389v1.039Z" transform="translate(-276.553 -44.087)" fill="#cc8946"/>
    <path id="Path_169" data-name="Path 169" d="M361.312,55.393c-.229,0-.457,0-.686,0a.7.7,0,0,1-.721-.708q-.011-.531,0-1.062a.7.7,0,0,1,.7-.708q.708-.011,1.416,0a.7.7,0,0,1,.711.719q.009.519,0,1.039a.7.7,0,0,1-.714.719Zm-.693-.727h1.4V53.635h-1.4Z" transform="translate(-344.318 -44.052)" fill="#cc8946"/>
    <path id="Path_170" data-name="Path 170" d="M145.327,106.958c.228,0,.457,0,.685,0a.7.7,0,0,1,.708.7q.012.542,0,1.084a.7.7,0,0,1-.7.693q-.719.012-1.438,0a.7.7,0,0,1-.693-.693c-.009-.361-.008-.723,0-1.084a.7.7,0,0,1,.7-.7C144.838,106.952,145.083,106.958,145.327,106.958Zm.674,1.76v-1.039h-1.387v1.038Z" transform="translate(-141.048 -94.91)" fill="#cc8946"/>
    <path id="Path_171" data-name="Path 171" d="M217.326,106.954c.236,0,.472,0,.708,0a.7.7,0,0,1,.713.718q.009.52,0,1.039a.7.7,0,0,1-.713.718c-.472.006-.944.008-1.416,0a.7.7,0,0,1-.7-.706q-.01-.531,0-1.062a.7.7,0,0,1,.7-.708C216.854,106.948,217.09,106.954,217.326,106.954Zm.7,1.76v-1.038H216.64v1.038Z" transform="translate(-208.827 -94.906)" fill="#cc8946"/>
    <path id="Path_172" data-name="Path 172" d="M145.323,163.412c-.236,0-.472.005-.708,0a.7.7,0,0,1-.7-.708q-.011-.531,0-1.062a.7.7,0,0,1,.721-.708q.7-.008,1.393,0a.7.7,0,0,1,.714.716c.007.347.006.693,0,1.04a.7.7,0,0,1-.733.72C145.78,163.415,145.551,163.412,145.323,163.412Zm-.7-.721h1.4V161.66h-1.4Z" transform="translate(-141.069 -145.7)" fill="#cc8946"/>
    <path id="Path_173" data-name="Path 173" d="M217.345,163.416c-.236,0-.472,0-.708,0a.708.708,0,0,1-.708-.719q-.009-.52,0-1.039a.7.7,0,0,1,.711-.718q.708-.01,1.416,0a.7.7,0,0,1,.7.708q.011.531,0,1.062a.7.7,0,0,1-.723.708C217.8,163.421,217.576,163.416,217.345,163.416Zm-.7-1.766v1.042h1.386v-1.042Z" transform="translate(-208.836 -145.705)" fill="#cc8946"/>
    <path id="Path_174" data-name="Path 174" d="M288.547,107.63v1.044c.041.016.081.029.118.047a.332.332,0,0,1,.209.413.344.344,0,0,1-.384.265.7.7,0,0,1-.657-.661q-.021-.574,0-1.15a.681.681,0,0,1,.649-.661c.487-.015.973-.009,1.46,0a.352.352,0,1,1-.005.7C289.486,107.633,289.027,107.63,288.547,107.63Z" transform="translate(-276.493 -94.874)" fill="#cc8946"/>
    <path id="Path_175" data-name="Path 175" d="M336.419,161.211c.249-.257.477-.5.708-.73.649-.652,1.3-1.307,1.957-1.951a.59.59,0,0,1,.359-.171.337.337,0,0,1,.273.5.851.851,0,0,1-.155.185q-1.4,1.4-2.8,2.8c-.281.281-.428.283-.7.007-.454-.453-.908-.906-1.357-1.361a.357.357,0,1,1,.5-.5C335.6,160.384,335.99,160.782,336.419,161.211Z" transform="translate(-320.47 -143.281)" fill="#cc8946"/>
  </g>
</svg>
