<svg width="15" height="14" viewBox="0 0 15 14" fill="none" xmlns="http://www.w3.org/2000/svg">
<path d="M12.0837 11.4546H2.5101C1.98128 11.4546 1.55273 11.882 1.55273 12.4091C1.55273 13.2878 2.26702 14 3.1483 14H11.4454C12.3267 14 13.0411 13.2878 13.0411 12.4091C13.0411 11.882 12.6124 11.4546 12.0837 11.4546Z" fill="white"/>
<path d="M4.58186 5.70583C4.59144 5.01066 5.16046 4.45276 5.85767 4.45451H8.73607C9.44077 4.45532 10.0118 5.02465 10.0126 5.72727L10.3451 10.8182H11.748L11.4454 5.09095C11.4442 4.03701 10.5877 3.18302 9.53064 3.18186H9.21159V2.54542H9.8498C10.2021 2.54507 10.4876 2.2604 10.488 1.90909V1.27277C10.4872 0.57014 9.91618 0.000815653 9.21159 0H5.38215C4.67745 0.000815653 4.10645 0.57014 4.10563 1.27277V1.90909C4.10598 2.2604 4.39148 2.54507 4.74383 2.54542H5.38215V3.18186H5.06299C4.01179 3.18081 3.1568 4.02606 3.14885 5.07417L2.8457 10.8182H4.23313L4.58186 5.70583ZM6.02035 2.54542H8.57328V3.18186H6.02035V2.54542Z" fill="white"/>
<path d="M8.73615 5.09106H5.85775C5.50541 5.09141 5.2199 5.37608 5.21955 5.72739L4.87305 10.8183H9.70555L9.37494 5.7479C9.37879 5.57603 9.31335 5.40975 9.19333 5.28624C9.07331 5.16284 8.90864 5.09246 8.73615 5.09106Z" fill="white"/>
</svg>
