<svg xmlns="http://www.w3.org/2000/svg" width="27.484" height="37.691" viewBox="0 0 27.484 37.691">
  <g id="cat_1_" data-name="cat (1)" transform="translate(0.042 0.03)">
    <path id="Path_1314" data-name="Path 1314" d="M388.622,999.762h-6.333a6.581,6.581,0,0,0-2.021-.469,4.35,4.35,0,0,1-3.545-5.111,8.3,8.3,0,0,1,1.823-3.882c.855-1.12,1.845-2.135,2.63-3.314a1.158,1.158,0,0,0,.188-.927,9.65,9.65,0,0,1,1.217-6.933c.081-.134.209-.275.079-.433a1.315,1.315,0,0,0-.6-.522c-.082-.024-.154.062-.221.111a8,8,0,0,0-.73.671.624.624,0,0,1-.891.053.6.6,0,0,1-.053-.884,3.953,3.953,0,0,1,.77-.787.367.367,0,0,0,.079-.61,4.533,4.533,0,0,1-.343-.566.345.345,0,0,0-.492-.167c-.287.111-.552.264-.826.4a.645.645,0,1,1-.641-1.113,9.082,9.082,0,0,1,1.02-.509.322.322,0,0,0,.229-.424,6.3,6.3,0,0,1,.03-2.771,1.171,1.171,0,0,0-.141-.874,12.6,12.6,0,0,1-1.331-4.525,15.891,15.891,0,0,1-.156-2.2,1.757,1.757,0,0,1,1.5-1.909h.81a14.632,14.632,0,0,1,1.885.236.7.7,0,0,1,.63.736c-.162.482-.387.624-.884.532q-.973-.184-1.959-.3a.3.3,0,0,0-.173.028c.336.27.692.491.993.783a7.843,7.843,0,0,1,1.437,1.94c.052.1.085.273.249.1a9.88,9.88,0,0,1,2.234-1.725c-.57-.183-.967-.442-.778-1.069a.68.68,0,0,1,.894-.274,6.582,6.582,0,0,1,1.114.481.692.692,0,0,0,.589.067,11.61,11.61,0,0,1,6.884-.037,1,1,0,0,0,.776-.05,13.444,13.444,0,0,1,5.515-1.412.172.172,0,0,0,.1-.038h.736a1.839,1.839,0,0,1,1.56,2.088,22.214,22.214,0,0,1-.49,3.783,11.2,11.2,0,0,1-1.064,2.848.905.905,0,0,0-.105.663,6.337,6.337,0,0,1,.041,2.872.335.335,0,0,0,.252.449,5.083,5.083,0,0,1,.981.5c.377.253.49.595.307.9a.684.684,0,0,1-.934.221c-.256-.119-.508-.245-.757-.377s-.437-.108-.574.162a5.216,5.216,0,0,1-.286.472c-.28.431-.285.442.135.763a3.411,3.411,0,0,1,.675.723.634.634,0,0,1-.924.866c-.26-.219-.475-.46-.709-.694a.3.3,0,0,0-.5,0c-.49.466-.5.459-.14,1.055a8.473,8.473,0,0,1,.888,2.139.731.731,0,0,1-.4,1.01.686.686,0,0,1-.821-.6,8.969,8.969,0,0,0-.772-1.866c-.251-.47-.259-.47-.7-.194a12.013,12.013,0,0,1-3.6,1.541,10.994,10.994,0,0,1-5.228-.012,11.7,11.7,0,0,1-3.588-1.569c-.306-.208-.349-.2-.541.124a8.244,8.244,0,0,0-1.079,3.293,9.685,9.685,0,0,0,.348,3.633c.557,2.16,1.124,4.317,1.663,6.48.125.5.284.99.39,1.494.06.287.2.427.505.4a3.067,3.067,0,0,1,1.333.216c.283.107.348,0,.342-.261-.008-.4,0-.81,0-1.214v-9.707c0-.617.126-.8.608-.935.51.086.686.272.7.771.015.563,0,1.126.005,1.689a.851.851,0,0,0,.029.345c.087.042.133-.008.183-.036a3.235,3.235,0,0,1,3.387-.073c.379.21.386.2.387-.227,0-.575-.007-1.151,0-1.726.01-.47.169-.646.64-.744a.751.751,0,0,1,.669.79c.011.159.006.319.006.478v10.3c0,.1,0,.2,0,.294-.011.246.074.34.328.244a3.112,3.112,0,0,1,1.3-.2.453.453,0,0,0,.515-.4c.239-.875.442-1.759.675-2.636q.753-2.882,1.482-5.769a7.268,7.268,0,0,0,.27-2.109.8.8,0,0,1,.564-.884c.442.016.589.116.715.485a4.555,4.555,0,0,1,.005.82,5.162,5.162,0,0,1-.143,1.382.966.966,0,0,0,.147.8,13.926,13.926,0,0,0,.863,1.165,2.673,2.673,0,0,0-.2-.909c-.186-.479-.4-.948-.543-1.442a2.543,2.543,0,0,1-.12-.831,5.36,5.36,0,0,0,0-.916,2.88,2.88,0,0,1,2.549-2.778,1.81,1.81,0,0,1,1.807.973,1.643,1.643,0,0,1-.157,1.8,1.3,1.3,0,0,1-.526.448c-.261.122-.279.294-.2.54.144.418.315.824.468,1.238a5.317,5.317,0,0,1-.484,4.694.476.476,0,0,0,.015.541,7.084,7.084,0,0,1,.989,2.517,4.7,4.7,0,0,1-.831,3.76,5.331,5.331,0,0,1-3.513,1.7,5.062,5.062,0,0,0-1.226.336h-6.26a1.145,1.145,0,0,1-.492-.221.614.614,0,0,0-.448-.121c-.574,0-1.148.015-1.721-.005C389.2,999.405,388.96,999.709,388.622,999.762Z" transform="translate(-376.71 -962.1)"/>
    <path id="Path_1315" data-name="Path 1315" d="M548.55,994.837l2.43-1.569a6.367,6.367,0,0,1,1.83.406l4.08,4.287,2.076,3.219a7.039,7.039,0,0,1-.013,1.632l-.109.516a21.044,21.044,0,0,0-2.349-.142l-2.819-.81-2.2-2.052-1.463-2.619Z" transform="translate(-535.935 -991)" fill="#f3e5d2"/>
    <path id="Path_1316" data-name="Path 1316" d="M452.127,1002.063a3.764,3.764,0,0,0-.429.068.541.541,0,0,0,.141,1.065c.147,0,.289-.007.435-.011,0,.34-.127.489-.465.524-.6-.037-.829.216-.709.79.086.208-.065.325-.188.432a11.079,11.079,0,0,1-6.017,2.767,10.356,10.356,0,0,1-2.635,0c-.255-.032-.5-.115-.747-.172a9.78,9.78,0,0,1-3.608-2.356,4.358,4.358,0,0,1,.99-.373c.385-.113.568-.368.491-.692s-.381-.466-.792-.368a5.42,5.42,0,0,0-1.236.456c-.161.085-.261.074-.353-.09s-.206-.3-.3-.461c-.262-.423-.256-.431.26-.471a10.406,10.406,0,0,1,1.507.009c.421.028.663-.147.7-.474s-.191-.589-.615-.624a6.866,6.866,0,0,0-2.089.053c-.359.078-.482-.025-.544-.375a6.437,6.437,0,0,1,.259-3.013,9.185,9.185,0,0,1,9.982-6.638l.411.035a6.738,6.738,0,0,0,.4,6.369,6.665,6.665,0,0,0,5.449,3.273,1.865,1.865,0,0,0,.473.026c.067.005.13.024.138.092.011.094-.057.121-.139.126A5.661,5.661,0,0,0,452.127,1002.063Z" transform="translate(-431.526 -989.883)" fill="#f3e5d2"/>
    <path id="Path_1317" data-name="Path 1317" d="M603.312,1201.707a6.815,6.815,0,0,1,.082,1.045.615.615,0,0,0-.494.606,15.311,15.311,0,0,1-.759,4.173c-.573,2.25-1.161,4.5-1.729,6.748-.061.242-.132.345-.406.319a3.547,3.547,0,0,0-1.88.379.712.712,0,0,1-.048-.412v-11.1c0-.523-.1-.654-.571-.795a.385.385,0,0,1-.108-.262q-.029-.8,0-1.595a.368.368,0,0,1,.108-.262,12.152,12.152,0,0,0,3.82-1.74c.188-.133.23.005.3.112a7.607,7.607,0,0,1,.971,2.209C602.716,1201.583,602.851,1201.685,603.312,1201.707Z" transform="translate(-581.174 -1181.357)" fill="#f3e5d2"/>
    <path id="Path_1318" data-name="Path 1318" d="M459.314,1203.073c-.408.091-.526.358-.526.756q.013,5.552.005,11.105v.448a5.372,5.372,0,0,0-1.053-.332c-.133-.016-.268-.029-.4-.055-.271-.053-.615.134-.8-.073a1.9,1.9,0,0,1-.228-.763c-.728-2.855-1.509-5.7-2.165-8.569a8.158,8.158,0,0,1,1.024-6.186c.136-.227.226-.3.483-.118a12.054,12.054,0,0,0,3.658,1.653.406.406,0,0,1,.107.265q.029.8,0,1.6A.4.4,0,0,1,459.314,1203.073Z" transform="translate(-448.286 -1181.753)" fill="#f3e5d2"/>
    <path id="Path_1319" data-name="Path 1319" d="M534.911,1303.78c0-1.19,0-2.38,0-3.569a2.092,2.092,0,1,1,4.181-.036c.014,2.465,0,4.933.007,7.4a.624.624,0,0,1-.161.43,3.455,3.455,0,0,0-.663,1.217.288.288,0,0,1-.334.244q-.937-.018-1.876,0a.293.293,0,0,1-.34-.242,2.752,2.752,0,0,0-.559-1.067,1.086,1.086,0,0,1-.258-.8C534.915,1306.157,534.911,1304.967,534.911,1303.78Z" transform="translate(-523.298 -1273.329)" fill="#cc8946"/>
    <path id="Path_1320" data-name="Path 1320" d="M396.945,1314.5c.356,1.384.7,2.7,1.049,4.071a6.111,6.111,0,0,0-1.41-.466c-.085-.014-.169-.031-.254-.038-.4-.035-.658.148-.693.483a.574.574,0,0,0,.556.61,4.176,4.176,0,0,1,1.915.789.9.9,0,0,1,.4.589c.088.442.221.878.342,1.313a.286.286,0,0,1-.164.4,3.79,3.79,0,0,0-1.919,2.264c-.041.122-.051.256-.255.234a5.324,5.324,0,0,1-2.042-.548,3.08,3.08,0,0,1-1.552-3.3,6.375,6.375,0,0,1,1.114-2.725C394.894,1316.9,396,1315.812,396.945,1314.5Z" transform="translate(-391.721 -1288.578)" fill="#f3e5d2"/>
    <path id="Path_1321" data-name="Path 1321" d="M594.569,1004.777a5.664,5.664,0,0,1-6.143-4.722,5.46,5.46,0,0,1,.458-3.37c.06-.129.1-.221.295-.167a8.5,8.5,0,0,1,4.147,2.52,8.917,8.917,0,0,1,1.568,4.887,2.322,2.322,0,0,1-.065.582A.31.31,0,0,1,594.569,1004.777Z" transform="translate(-572.79 -993.997)" fill="#f3e5d2"/>
    <path id="Path_1322" data-name="Path 1322" d="M527,1225.191v-2.131a13.389,13.389,0,0,0,3.019.3,15.914,15.914,0,0,0,2.283-.295v2.119a.639.639,0,0,0-.538.747c.018.744.005,1.489.005,2.29a3.3,3.3,0,0,0-4.185,0v-2.294C527.583,1225.444,527.474,1225.308,527,1225.191Z" transform="translate(-515.972 -1203.871)" fill="#ddccb8"/>
    <path id="Path_1323" data-name="Path 1323" d="M654.729,1343.7c-.186.082-.3.074-.375-.167a3.755,3.755,0,0,0-1.937-2.291c-.19-.1-.2-.194-.147-.375a10.842,10.842,0,0,0,.308-1.208,1.127,1.127,0,0,1,.534-.784,4.3,4.3,0,0,1,1.756-.7c.434-.064.64-.289.6-.638s-.309-.516-.742-.457a5.743,5.743,0,0,0-1.6.5c.233-.9.448-1.73.663-2.557.177-.029.272.1.361.209a11.846,11.846,0,0,1,2,3.1,4.929,4.929,0,0,1,.19,3.516,3.574,3.574,0,0,1-1.164,1.62A2.432,2.432,0,0,1,654.729,1343.7Z" transform="translate(-631.993 -1307.583)" fill="#f3e5d2"/>
    <path id="Path_1324" data-name="Path 1324" d="M674.143,1324.708a6.11,6.11,0,0,0,1.039-.971,4.2,4.2,0,0,0,.541-3.608,8.587,8.587,0,0,0-1.683-3.144,4.332,4.332,0,0,0-.839-.964l.381-1.51c.711.964,1.473,1.809,2.188,2.691a11.326,11.326,0,0,1,1.184,1.724,5.02,5.02,0,0,1,.663,2.927,2.82,2.82,0,0,1-1.673,2.415A3.912,3.912,0,0,1,674.143,1324.708Z" transform="translate(-651.406 -1288.588)" fill="#ddccb8"/>
    <path id="Path_1325" data-name="Path 1325" d="M512.87,1163.98a21.237,21.237,0,0,0,2.4.147,10.814,10.814,0,0,0,5.043-1.455,11.16,11.16,0,0,0,1.784-1.272c.147-.122.326-.23.352-.45.221.336.613.325.937.442.564.205.578.209.134.589a10.085,10.085,0,0,1-10.362,2.135A2.547,2.547,0,0,1,512.87,1163.98Z" transform="translate(-502.883 -1146.335)" fill="#ddccb8"/>
    <path id="Path_1326" data-name="Path 1326" d="M704.683,1246.133c-.048-.037-.058-.043-.067-.052a1.332,1.332,0,0,1-.442-1.594,2.5,2.5,0,0,0-.2-1.752,7.7,7.7,0,0,1-.655-2.128,2.282,2.282,0,0,1,.585-1.8,1.143,1.143,0,0,1,1.252-.4.508.508,0,0,1-.035.986.941.941,0,0,0-.782,1.2,4.945,4.945,0,0,0,.317,1.088,7.089,7.089,0,0,1,.582,1.923A4.347,4.347,0,0,1,704.683,1246.133Z" transform="translate(-679.302 -1218.039)" fill="#f3e5d2"/>
    <path id="Path_1327" data-name="Path 1327" d="M424.4,976.07c.422.057.8.275,1.236.294-.159.736.482.756.928,1a10.263,10.263,0,0,0-2.577,2.017,8.206,8.206,0,0,0-1.15-1.8,6.927,6.927,0,0,0-1.6-1.344.619.619,0,0,1,.552-.077c.605.087,1.213.167,1.812.287A.616.616,0,0,0,424.4,976.07Z" transform="translate(-418 -975.069)" fill="#f3e5d2"/>
    <path id="Path_1328" data-name="Path 1328" d="M632.92,978.763c1.371-.655,4.652-1.361,5.284-1.15.018.063-.032.083-.074.107a6.9,6.9,0,0,0-2.49,2.779c-.049.1-.061.359-.279.132A10.246,10.246,0,0,0,632.92,978.763Z" transform="translate(-614.092 -976.464)" fill="#f3e5d2"/>
    <path id="Path_1329" data-name="Path 1329" d="M417.323,999.12a14.173,14.173,0,0,1-1.056-5.155c.155-.023.237.1.335.176a6.015,6.015,0,0,1,1.892,2.573.343.343,0,0,1-.009.375,10.536,10.536,0,0,0-1.083,1.957C417.39,999.075,417.352,999.093,417.323,999.12Z" transform="translate(-413.393 -991.644)" fill="#cc8946"/>
    <path id="Path_1330" data-name="Path 1330" d="M681.475,993.09a15.142,15.142,0,0,1-1.071,5.3,12.112,12.112,0,0,0-1.163-2.126.228.228,0,0,1-.049-.236A6.117,6.117,0,0,1,681.475,993.09Z" transform="translate(-656.944 -990.836)" fill="#cc8946"/>
    <path id="Path_1331" data-name="Path 1331" d="M597.719,1430.286a.6.6,0,0,0-.384.6c.019.184-.083.194-.221.19a5.509,5.509,0,0,0-.589,0c-.291.025-.5.011-.51-.382a.526.526,0,0,0-1.03.019c-.005.35-.172.4-.449.361a1.348,1.348,0,0,0-.147,0c-.606,0-.606,0-.365-.552a2.757,2.757,0,0,1,2.872-1.645A1.822,1.822,0,0,1,597.719,1430.286Z" transform="translate(-577.92 -1394.521)" fill="#ececec"/>
    <path id="Path_1332" data-name="Path 1332" d="M463.1,1430.1c-.48.053-.6.161-.646.622-.013.14-.043.193-.189.184a4.2,4.2,0,0,0-.589,0c-.295.025-.524.031-.539-.385a.461.461,0,0,0-.527-.409c-.271.008-.516.161-.507.432.007.368-.175.383-.442.361-.147-.012-.29,0-.438,0a2.709,2.709,0,0,1,3.23-2.15,2.31,2.31,0,0,1,.724,1.151C463.2,1429.967,463.29,1430.1,463.1,1430.1Z" transform="translate(-453.183 -1394.344)" fill="#ececec"/>
    <path id="Path_1333" data-name="Path 1333" d="M657.309,1036.669a1.922,1.922,0,0,0,.187-1.434,10.112,10.112,0,0,0-1.428-4.231c-.011-.019,0-.048-.006-.073a8.878,8.878,0,0,1,2.267,3.992c.1.374.152.764.233,1.146.052.245-.013.384-.283.434A8.086,8.086,0,0,1,657.309,1036.669Z" transform="translate(-635.529 -1025.889)" fill="#f3e5d2"/>
    <path id="Path_1334" data-name="Path 1334" d="M503.756,1431.057a1.728,1.728,0,0,0-.391-.947c-.079-.136-.169-.266-.255-.4a2.653,2.653,0,0,1,2.172,2.149c-.295,0-.589,0-.884,0-.128,0-.208-.016-.2-.175A.6.6,0,0,0,503.756,1431.057Z" transform="translate(-493.841 -1395.304)" fill="#c8c8c8"/>
    <path id="Path_1335" data-name="Path 1335" d="M635.79,1430.494a3.94,3.94,0,0,0-.82-1.4,2.78,2.78,0,0,1,2.344,1.934c.057.2.028.294-.2.266a1.375,1.375,0,0,0-.329,0c-.186.018-.27-.018-.284-.243C636.471,1430.642,636.258,1430.5,635.79,1430.494Z" transform="translate(-615.991 -1394.73)" fill="#c8c8c8"/>
    <path id="Path_1336" data-name="Path 1336" d="M652.65,1143.214c.267-.074.36-.3.465-.524a5.864,5.864,0,0,1,1.69.064,1.387,1.387,0,0,1-.083.186c-.172.266-.291.62-.535.769s-.53-.185-.815-.258C653.127,1143.388,652.89,1143.294,652.65,1143.214Z" transform="translate(-632.37 -1129.388)" fill="#ddccb8"/>
    <path id="Path_1337" data-name="Path 1337" d="M686.983,1259.948c-.04-.074-.08-.143-.12-.214.178-.277-.092-.548-.009-.823h.129Z" transform="translate(-664.04 -1237.081)" fill="#a9a9a9"/>
    <path id="Path_1338" data-name="Path 1338" d="M514.323,1086.975a3.851,3.851,0,0,1,1.344.156,1.185,1.185,0,0,1,.81,1.542,2.422,2.422,0,0,1-1.175,1.445c-.139.082-.39.052-.4.261a1.58,1.58,0,0,0,.074.866,1.18,1.18,0,0,0,1.271.523,1.019,1.019,0,0,0,.868-.913c.056-.409.267-.609.612-.581s.508.271.488.689a2.245,2.245,0,0,1-3.208,1.729c-.247-.114-.448-.407-.668-.413s-.435.287-.674.4a2.237,2.237,0,0,1-3.213-1.672c-.047-.406.116-.677.438-.729.356-.057.585.134.647.567a1.018,1.018,0,0,0,.764.894,1.19,1.19,0,0,0,1.252-.311,1.274,1.274,0,0,0,.221-1.077c-.007-.128-.168-.12-.262-.166a2.311,2.311,0,0,1-1.342-1.6,1.166,1.166,0,0,1,.843-1.457A3.879,3.879,0,0,1,514.323,1086.975Z" transform="translate(-500.633 -1077.802)"/>
    <path id="Path_1339" data-name="Path 1339" d="M492.219,1053.71a2.061,2.061,0,0,1,0,.294.536.536,0,0,1-.6.458c-.36-.038-.5-.295-.491-.884.007-.418.185-.655.511-.679a.529.529,0,0,1,.586.478,2.769,2.769,0,0,1,0,.331Z" transform="translate(-482.737 -1046.238)" fill="#010101"/>
    <path id="Path_1340" data-name="Path 1340" d="M549.63,1103.084a1.275,1.275,0,0,1-1.067-.825c-.053-.177.007-.249.17-.28a4.94,4.94,0,0,1,1.782,0c.166.03.229.108.183.28A1.289,1.289,0,0,1,549.63,1103.084Z" transform="translate(-535.93 -1091.632)" fill="#cc8946"/>
    <path id="Path_1341" data-name="Path 1341" d="M621.249,1053.731a1.8,1.8,0,0,1-.053.434.5.5,0,0,1-.51.343.506.506,0,0,1-.516-.387,1.632,1.632,0,0,1-.023-.691.521.521,0,0,1,.583-.482.515.515,0,0,1,.5.526c.007.085,0,.171,0,.256Z" transform="translate(-602.235 -1046.283)" fill="#020101"/>
  </g>
</svg>
