<svg xmlns="http://www.w3.org/2000/svg" width="19.973" height="20.515" viewBox="0 0 19.973 20.515">
  <g id="Cat" transform="translate(0.011 0.047)">
    <path id="Path_613" data-name="Path 613" d="M357.33,655.6c.267.1.515.18.75.288s.291.271.2.445-.258.2-.479.107c-.194-.084-.4-.147-.583-.214l-.617,1.635c.193.1.4.2.6.322a1.453,1.453,0,0,1,.355.3.282.282,0,0,1-.046.419.31.31,0,0,1-.425-.017c-.25-.18-.513-.339-.768-.5a9.492,9.492,0,0,1-16.078-.005c-.235.147-.5.283-.726.46-.193.149-.35.188-.491.046a.309.309,0,0,1,.052-.49,5.665,5.665,0,0,1,.613-.406,2.845,2.845,0,0,1,.265-.136.227.227,0,0,0,0-.064c-.193-.491-.388-.981-.593-1.5-.168.054-.352.108-.532.175a.323.323,0,0,1-.45-.154.3.3,0,0,1,.193-.414c.213-.087.433-.152.664-.232-.034-.353-.077-.714-.1-1.078a6.792,6.792,0,0,1,.2-2.266,2.775,2.775,0,0,0-.029-1.127,37.748,37.748,0,0,1-.378-5.628,7.136,7.136,0,0,1,.3-2.143,2.471,2.471,0,0,1,.232-.507,1.329,1.329,0,0,1,1.614-.539,6.492,6.492,0,0,1,2.184,1.055,8.041,8.041,0,0,1,2.33,2.295c.072.116.148.1.243.071a9.584,9.584,0,0,1,2.749-.312,10.341,10.341,0,0,1,2.233.325.263.263,0,0,0,.235-.06,8.6,8.6,0,0,1,2.758-2.582,5.313,5.313,0,0,1,2.036-.838,1.279,1.279,0,0,1,1.476.784,4.849,4.849,0,0,1,.381,1.74,26.447,26.447,0,0,1-.163,4.764c-.088.838-.206,1.677-.305,2.512a.811.811,0,0,0,.027.264,8.154,8.154,0,0,1,.092,3.009C357.338,655.471,357.335,655.544,357.33,655.6Zm-16.5,2.546a8.669,8.669,0,0,0,8.332,4.012,8.3,8.3,0,0,0,6.477-3.983,1.3,1.3,0,0,0-.123-.049l-3.428-1.023c-.259-.077-.374-.207-.33-.4.047-.2.222-.289.483-.214q1.5.431,3.007.872c.247.072.489.163.766.256.189-.493.368-.963.559-1.459-.171-.019-.3-.042-.419-.046q-1.746-.049-3.493-.092c-.274-.007-.428-.114-.424-.317s.15-.316.41-.31q1.636.034,3.269.08c.258.007.515.032.775.05.023-.128.046-.229.06-.332.02-.148.04-.3.049-.445a7.482,7.482,0,0,0-2.229-6.025,8.512,8.512,0,0,0-8.956-2.194,7.917,7.917,0,0,0-5.644,5.786,7.2,7.2,0,0,0-.089,3.252c.068,0,.126,0,.183,0,.775-.05,1.55-.111,2.325-.148.507-.025,1.018-.02,1.523-.019a.315.315,0,0,1,.336.315.322.322,0,0,1-.343.308h-.112c-.948.03-1.9.056-2.843.093-.3.012-.6.053-.949.085l.529,1.35,3.727-1.069c.247-.07.419.014.471.207s-.065.336-.317.4c-.4.106-.8.2-1.189.318C342.444,657.645,341.669,657.886,340.832,658.142Zm12.028-11.528c.486-.494.963-1.011,1.475-1.489a7.564,7.564,0,0,1,1.015-.769c.269-.18.5-.06.523.253a5.371,5.371,0,0,1,.009.894c-.089,1.072-.2,2.142-.286,3.213a.58.58,0,0,0,.095.323c.262.425.539.838.8,1.264.093.148.162.311.24.467a4.027,4.027,0,0,0,.129-.731,27.485,27.485,0,0,0,.2-5.164,6.91,6.91,0,0,0-.316-1.48.636.636,0,0,0-.82-.444,2.888,2.888,0,0,0-.539.138,8.6,8.6,0,0,0-3.33,2.358c-.166.185-.3.394-.458.6ZM339.852,650.6c.377-.566.744-1.108,1.1-1.66a.628.628,0,0,0,.108-.359c-.069-.8-.171-1.6-.232-2.408a14.845,14.845,0,0,1-.034-1.565c.009-.305.24-.419.5-.265a3.9,3.9,0,0,1,.676.475c.577.531,1.135,1.082,1.7,1.621.052.05.149.12.192.1.389-.164.77-.346,1.168-.53-.066-.1-.12-.184-.185-.266a8.379,8.379,0,0,0-2.679-2.24,6.385,6.385,0,0,0-1.346-.526.677.677,0,0,0-.958.539,5.215,5.215,0,0,0-.26,1.377c-.021,1.193,0,2.388.049,3.582C339.68,649.187,339.783,649.9,339.852,650.6Zm13.532-3.708,1.633,1.317c.092-1.008.183-2.005.274-3l-.081-.046Zm-11.748,1.228,1.607-1.266-1.8-1.7-.072.05c.088.968.176,1.935.265,2.912Z" transform="translate(-338.36 -642.35)" fill="#cc8946"/>
    <path id="Path_614" data-name="Path 614" d="M450,861.011c.091-.287-.056-.479-.375-.6a1.649,1.649,0,0,1-.472-.335.494.494,0,0,1,.029-.822,1.737,1.737,0,0,1,.622-.283,2.047,2.047,0,0,1,1.481.159.559.559,0,0,1,.1,1.027c-.19.152-.419.254-.621.395a.365.365,0,0,0-.133.213c-.023.115.011.24-.01.359-.06.313.091.47.359.595a1.787,1.787,0,0,0,2.156-.253.3.3,0,0,1,.457,0,.3.3,0,0,1-.04.455,6.889,6.889,0,0,1-.866.539c-.125.065-.194.1-.2.262a2.8,2.8,0,0,1-.465,1.429,2.054,2.054,0,0,1-3.516.028,2.715,2.715,0,0,1-.48-1.47c0-.159-.073-.206-.2-.271a8.169,8.169,0,0,1-.843-.5.3.3,0,0,1-.1-.464.324.324,0,0,1,.492-.017,2.028,2.028,0,0,0,1.982.44c.042-.014.084-.03.125-.048C449.962,861.641,450,861.578,450,861.011Zm1.86,1.6c-.263-.06-.515-.1-.752-.18s-.457-.216-.692-.31a.333.333,0,0,0-.21.041c-.348.144-.689.308-1.043.435a2.067,2.067,0,0,1-.5.054,1.623,1.623,0,1,0,3.2-.041Zm-2.191-2.943a.782.782,0,0,0,1.286,0,1.7,1.7,0,0,0-1.285,0Z" transform="translate(-440.339 -845.978)" fill="#cc8946"/>
    <path id="Path_615" data-name="Path 615" d="M420.763,784.17a6.99,6.99,0,0,1-.007.958,1.21,1.21,0,0,1-1.417,1,1.189,1.189,0,0,1-1.138-1.183c-.007-.515-.008-1.03,0-1.545a1.177,1.177,0,0,1,1.174-1.166,2.173,2.173,0,0,1,.468.025,1.188,1.188,0,0,1,.946,1.175c.008.246,0,.492,0,.738Zm-.6,0c0-.24.007-.479,0-.719-.016-.413-.252-.605-.722-.6a.565.565,0,0,0-.612.615q-.005.694,0,1.389a.58.58,0,0,0,.64.638.6.6,0,0,0,.695-.633c0-.229,0-.461,0-.692Z" transform="translate(-413.426 -773.896)" fill="#cc8946"/>
    <path id="Path_616" data-name="Path 616" d="M548.062,784.1c0,.246,0,.493,0,.739a1.2,1.2,0,0,1-1.235,1.207,1.214,1.214,0,0,1-1.353-1.154c-.02-.529-.018-1.06,0-1.589a1.207,1.207,0,0,1,1.211-1.161,1.241,1.241,0,0,1,1.381,1.377C548.048,783.708,548.062,783.9,548.062,784.1Zm-.628.011c0-.253.006-.506,0-.76a.56.56,0,0,0-.581-.576c-.467-.014-.735.163-.749.539-.019.514-.017,1.028,0,1.542.011.375.282.574.714.561a.576.576,0,0,0,.617-.591C547.439,784.586,547.434,784.347,547.434,784.108Z" transform="translate(-533.07 -773.81)" fill="#cc8946"/>
  </g>
</svg>
