<svg width="15" height="14" viewBox="0 0 15 14" fill="none" xmlns="http://www.w3.org/2000/svg">
<g clip-path="url(#clip0_8_791)">
<path d="M11.081 11.6484C10.6216 11.6484 10.2274 11.9316 10.0644 12.332H9.10645V13.1523H10.0644C10.2274 13.5528 10.6216 13.8359 11.081 13.8359C11.6859 13.8359 12.178 13.3453 12.178 12.7422C12.178 12.1391 11.6859 11.6484 11.081 11.6484Z" fill="white"/>
<path d="M13.0007 9.32422C12.8204 9.32422 12.6503 9.36808 12.5001 9.44527L11.4815 8.59895C11.4075 8.53754 11.3144 8.50391 11.2181 8.50391H9.10645V9.32422H11.0692L11.9623 10.0663C11.9245 10.1767 11.9037 10.2949 11.9037 10.418C11.9037 11.0211 12.3958 11.5117 13.0007 11.5117C13.6056 11.5117 14.0977 11.0211 14.0977 10.418C14.0977 9.81488 13.6056 9.32422 13.0007 9.32422Z" fill="white"/>
<path d="M13.0007 5.90625C12.5413 5.90625 12.1472 6.18942 11.9841 6.58984H9.10645V7.41016H11.9841C12.1472 7.81058 12.5413 8.09375 13.0007 8.09375C13.6056 8.09375 14.0977 7.60309 14.0977 7C14.0977 6.39691 13.6056 5.90625 13.0007 5.90625Z" fill="white"/>
<path d="M11.4815 5.40102L12.5001 4.5547C12.6503 4.63192 12.8204 4.67578 13.0007 4.67578C13.6056 4.67578 14.0977 4.18512 14.0977 3.58203C14.0977 2.97894 13.6056 2.48828 13.0007 2.48828C12.3958 2.48828 11.9037 2.97894 11.9037 3.58203C11.9037 3.70508 11.9245 3.82329 11.9623 3.93373L11.0692 4.67578H9.10645V5.49609H11.2181C11.3144 5.49609 11.4075 5.46246 11.4815 5.40102Z" fill="white"/>
<path d="M11.081 2.35156C11.6859 2.35156 12.178 1.86091 12.178 1.25781C12.178 0.654719 11.6859 0.164062 11.081 0.164062C10.6216 0.164062 10.2274 0.447234 10.0644 0.847656H9.10645V1.66797H10.0644C10.2274 2.06839 10.6216 2.35156 11.081 2.35156Z" fill="white"/>
<path d="M4.16992 7C4.16992 8.58312 5.46169 9.87109 7.04949 9.87109C7.49088 9.87109 7.90932 9.77143 8.28358 9.59369V4.40631C7.90932 4.22857 7.49088 4.12891 7.04949 4.12891C5.46169 4.12891 4.16992 5.41688 4.16992 7Z" fill="white"/>
<path d="M7.87211 0.0273438H6.22664C5.99946 0.0273438 5.81528 0.210984 5.81528 0.4375V0.971387C5.04336 1.12818 4.30466 1.4333 3.64667 1.86714L3.26793 1.48955C3.10728 1.32937 2.84683 1.32937 2.68618 1.48955L1.52267 2.64964C1.36202 2.80979 1.36202 3.0695 1.52267 3.22968L1.90138 3.6073C1.46626 4.26336 1.16023 4.99989 1.00298 5.76953H0.467519C0.240335 5.76953 0.0561523 5.95317 0.0561523 6.17969V7.82031C0.0561523 8.04683 0.240335 8.23047 0.467519 8.23047H1.00298C1.16023 9.00011 1.46626 9.73664 1.90138 10.3927L1.52265 10.7703C1.4455 10.8473 1.40217 10.9516 1.40217 11.0604C1.40217 11.1691 1.4455 11.2734 1.52265 11.3503L2.68618 12.5104C2.84683 12.6706 3.10728 12.6706 3.26793 12.5104L3.64667 12.1329C4.30466 12.5667 5.04336 12.8718 5.81528 13.0286V13.5625C5.81528 13.789 5.99946 13.9727 6.22664 13.9727H7.87211C8.09929 13.9727 8.28348 13.789 8.28348 13.5625V10.4803C7.89729 10.6168 7.48194 10.6914 7.04938 10.6914C5.00793 10.6914 3.34708 9.03544 3.34708 7C3.34708 4.96456 5.00793 3.30859 7.04938 3.30859C7.48194 3.30859 7.89729 3.38319 8.28348 3.51974V0.4375C8.28348 0.210984 8.09929 0.0273438 7.87211 0.0273438Z" fill="white"/>
</g>
<defs>
<clipPath id="clip0_8_791">
<rect width="14.0413" height="14" fill="white" transform="translate(0.0561523)"/>
</clipPath>
</defs>
</svg>
