<svg xmlns="http://www.w3.org/2000/svg" width="27.337" height="37.692" viewBox="0 0 27.337 37.692">
  <g id="dog_2_" data-name="dog (2)" transform="translate(0.054 -0.01)">
    <path id="Path_1342" data-name="Path 1342" d="M424.978,1051.987c-.491-.2-.567-.346-.477-.87a5.475,5.475,0,0,1,1.434-2.879c.355-.377.622-.386.992-.016q2.326,2.325,4.646,4.657a1.779,1.779,0,0,0,.279.3c.234-1.125.719-2.12,1-3.174a6.524,6.524,0,0,0,.045-1.571c0-.125-.107-.154-.185-.2a3.547,3.547,0,0,1-1.226-1.339.6.6,0,0,0-.256-.248,6.155,6.155,0,0,1-3.355-5.735c0-1.19-.007-2.378,0-3.568,0-.235-.034-.377-.294-.455a2.183,2.183,0,0,1-.883-.571c-.607-.606-1.223-1.2-1.815-1.823a2.736,2.736,0,0,1,.009-3.872c1.232-1.263,2.492-2.5,3.73-3.75a3.571,3.571,0,0,1,1.488-.792H431a2.6,2.6,0,0,1,2.269,1.808c.064.159.142.272.346.258,1.209-.082,2.42-.025,3.632-.034,1.407-.01,2.815-.038,4.221.017a.816.816,0,0,0,.943-.571,2.414,2.414,0,0,1,2.035-1.473h.955c1.352.3,2.061,1.442,2.985,2.3a.56.56,0,0,1,.027.715c-.274.347-.576.369-.923.041-.424-.4-.829-.823-1.242-1.238a2.117,2.117,0,0,0-.745-.514,1.471,1.471,0,0,0-1.653.363,1.506,1.506,0,0,0-.375,1.657c.624,1.777,1.276,3.544,1.884,5.325a1.609,1.609,0,0,0,2.2,1.007,2.141,2.141,0,0,0,.589-.435c.508-.513,1.022-1.02,1.528-1.534a1.6,1.6,0,0,0,.039-2.386c-.206-.226-.441-.425-.64-.656a.537.537,0,0,1,.055-.828.6.6,0,0,1,.879.1c.226.241.472.463.694.709a2.748,2.748,0,0,1,0,3.712c-.632.687-1.307,1.326-1.969,1.98a2.021,2.021,0,0,1-.806.5c-.229.072-.284.2-.285.421,0,1.435.081,2.873-.032,4.3a6.008,6.008,0,0,1-3.132,4.931,1.341,1.341,0,0,0-.54.514,3.058,3.058,0,0,1-1.08,1.133.512.512,0,0,0-.246.475,5.384,5.384,0,0,0,.461,2.569,7.18,7.18,0,0,1,.491,1.725.417.417,0,0,0,.225.307,5.464,5.464,0,0,1,2.655,4.893v.183c-.05.527-.007.91.619,1.178a2.119,2.119,0,0,1,1.106,2.288,2.282,2.282,0,0,1-1.767,1.885c-.047.011-.1.01-.117.066h-17.12c-.063-.117-.2-.091-.289-.127a2.3,2.3,0,0,1-1.547-2.114,2.236,2.236,0,0,1,1.443-2.176.4.4,0,0,0,.308-.478,8.748,8.748,0,0,1,.007-1.028c.019-.241-.072-.295-.294-.348a5.454,5.454,0,0,1-4.049-3.568c-.162-.432-.089-.608.3-.85.393-.119.6-.026.785.371a6.8,6.8,0,0,0,.44.928,4.427,4.427,0,0,0,2.5,1.879c.153.046.324.149.477-.014a5.8,5.8,0,0,1,1.4-2.213c.222-.208.058-.342-.083-.482-1.072-1.071-2.137-2.149-3.215-3.214-.212-.218-.435-.426-.641-.649-.174-.189-.294-.161-.422.048a4.837,4.837,0,0,0-.628,1.7C425.574,1051.876,425.375,1052.035,424.978,1051.987Z" transform="translate(-424.14 -1026.07)"/>
    <path id="Path_1343" data-name="Path 1343" d="M636.728,1038.74a1.2,1.2,0,0,1,.637.406c.437.429.864.866,1.3,1.3.34.337.524.349.927.073.138.358.465.547.719.8a.6.6,0,0,0,.1.877c.223.208.441.423.644.65a1.623,1.623,0,0,1,.049,2.2c-.624.687-1.3,1.32-1.963,1.971a.631.631,0,0,1-.34.2c-.259.083-.344-.118-.442-.281a7.721,7.721,0,0,1-.546-1.359c-.532-1.473-1.038-2.945-1.571-4.417a2.341,2.341,0,0,1,.218-2.14C636.526,1038.91,636.584,1038.783,636.728,1038.74Z" transform="translate(-615.32 -1037.487)" fill="#f8f5f5"/>
    <path id="Path_1344" data-name="Path 1344" d="M437.552,1270.346c0,.253-.151.187-.294.151a4.349,4.349,0,0,1-3.239-2.847c-.136-.361-.344-.552-.739-.491a5.271,5.271,0,0,1-.072-1.08.662.662,0,0,0,.606-.66,4.278,4.278,0,0,1,.7-1.787c.119-.179.2-.242.366-.043.236.278.5.528.756.785a4.788,4.788,0,0,0,.535,4.574,5.324,5.324,0,0,0,1.118,1.153C437.381,1270.177,437.5,1270.23,437.552,1270.346Z" transform="translate(-432.363 -1240.155)" fill="#dcd9eb"/>
    <path id="Path_1345" data-name="Path 1345" d="M526.018,1278.809a15.128,15.128,0,0,0,2.142.282,10.8,10.8,0,0,0,4.141-.649c.224-.083.306-.043.393.184a10.132,10.132,0,0,1,.757,3.349,8.267,8.267,0,0,1-.481,2.883c-.25.7-.506,1.4-.75,2.109-.17.491.014.786.521.861a1.2,1.2,0,0,1,1.142,1.276,1.233,1.233,0,0,1-1.323,1.105q-.991.006-1.983,0a1.343,1.343,0,0,1-1.422-1.4c-.015-1.238,0-2.477-.009-3.715a.344.344,0,0,1,.244-.35,1.811,1.811,0,0,0,1.018-1.437.6.6,0,0,0-.475-.745c-.32-.042-.547.169-.615.574a.724.724,0,0,1-1.445,0c-.068-.4-.3-.613-.624-.564a.606.606,0,0,0-.464.753,1.8,1.8,0,0,0,1.026,1.429.365.365,0,0,1,.243.392c-.009,1.19,0,2.38-.007,3.569a1.384,1.384,0,0,1-1.546,1.506c-.38,0-.759-.007-1.138-.011a1.493,1.493,0,0,1-.471-1.714,1.732,1.732,0,0,1,1.215-1.221c.309-.089.344-.227.246-.5-.256-.728-.537-1.449-.756-2.189a8.434,8.434,0,0,1,.154-5.345C525.8,1279.069,525.834,1278.887,526.018,1278.809Z" transform="translate(-514.97 -1253.623)" fill="#cc8946"/>
    <path id="Path_1346" data-name="Path 1346" d="M588.238,1075.088c0-1.22.019-2.344,0-3.466a3.5,3.5,0,0,0-2.482-3.289,1.817,1.817,0,0,1-1.212-.741,1.264,1.264,0,0,0-.756-.491.308.308,0,0,1-.262-.356q.012-3.64,0-7.28c0-.23.045-.328.294-.315.659.034,1.32-.03,1.98.048a.276.276,0,0,1,.269.228q.973,2.788,1.963,5.569a2.763,2.763,0,0,0,2.051,1.865c.171.042.255.087.251.277-.026,1.473.079,2.945-.055,4.41A4.994,4.994,0,0,1,588.238,1075.088Z" transform="translate(-567.923 -1055.892)" fill="#cc8946"/>
    <path id="Path_1347" data-name="Path 1347" d="M532.611,1164.281a2.116,2.116,0,0,0,.812.312c.3.018.339.159.339.419a1.484,1.484,0,0,0,.938,1.449,1.5,1.5,0,0,0,1.648-.243,1.575,1.575,0,0,0,.557-1.3c0-.127-.04-.255.173-.289a2.134,2.134,0,0,0,1.882-1.865,2.428,2.428,0,0,1,1.956,2.313c.023,1.164.026,2.329,0,3.493a2.5,2.5,0,0,1-2.433,2.414,2.522,2.522,0,0,1-2.586-2.306,3.031,3.031,0,0,0-.037-.328.506.506,0,0,0-.539-.451.5.5,0,0,0-.526.464,3.557,3.557,0,0,1-.235,1.106,2.317,2.317,0,0,1-1.2,1.224c-.19.028-.294-.1-.386-.229a3.025,3.025,0,0,1-.7-1.887v-3.515a1.623,1.623,0,0,1,.078-.615C532.4,1164.34,532.435,1164.2,532.611,1164.281Z" transform="translate(-521.707 -1149.333)" fill="#f8f5f5"/>
    <path id="Path_1348" data-name="Path 1348" d="M479.389,1067.833a.557.557,0,0,1-.513.381,3.561,3.561,0,0,0-2.945,3.375c-.025,1.017-.009,2.035-.011,3.052v.408a3.7,3.7,0,0,1-.982-.923,5.168,5.168,0,0,1-1.1-3.314q0-1.8,0-3.6c0-.222.064-.3.295-.359a2.682,2.682,0,0,0,1.983-1.787q1-2.8,1.98-5.6a.33.33,0,0,1,.328-.258c.671-.074,1.345-.016,2.016-.041.2-.007.213.1.21.253-.009.429-.01.857-.015,1.286a2.6,2.6,0,0,1-.295.589,5.583,5.583,0,0,0-.9,3.023c-.024.943-.006,1.887,0,2.831A6.1,6.1,0,0,1,479.389,1067.833Z" transform="translate(-469.001 -1055.9)" fill="#aa6d35"/>
    <path id="Path_1349" data-name="Path 1349" d="M461.749,1040.776a1.593,1.593,0,0,1,.558,1.859c-.637,1.829-1.295,3.651-1.947,5.475a1.32,1.32,0,0,1-.5.7c-.181.047-.265-.1-.364-.2-.428-.419-.85-.844-1.27-1.27a2.263,2.263,0,0,1-.055-3.206c1.045-1.1,2.133-2.152,3.207-3.221C461.474,1040.819,461.572,1040.681,461.749,1040.776Z" transform="translate(-454.302 -1039.294)" fill="#f8f5f5"/>
    <path id="Path_1350" data-name="Path 1350" d="M509.022,1164.226c-.235.11-.213.345-.215.531-.013,1.337-.042,2.675.007,4.01a2.53,2.53,0,0,0,.955,1.872,2.469,2.469,0,0,1-3.6-1.99c-.087-1.243-.044-2.5-.01-3.746a2.419,2.419,0,0,1,1.956-2.2A2.288,2.288,0,0,0,509.022,1164.226Z" transform="translate(-498.118 -1149.279)" fill="#dcd9eb"/>
    <path id="Path_1351" data-name="Path 1351" d="M441.7,1037.6c-.154,0-.231.125-.324.218q-1.571,1.57-3.131,3.141a2.19,2.19,0,0,0,.021,3.171c.511.505.987,1.048,1.545,1.506a1.593,1.593,0,0,1-2.192-.033c-.635-.6-1.264-1.229-1.865-1.871a1.6,1.6,0,0,1,0-2.234q1.873-1.942,3.811-3.824A1.585,1.585,0,0,1,441.7,1037.6Z" transform="translate(-434.252 -1036.121)" fill="#dcd9eb"/>
    <path id="Path_1352" data-name="Path 1352" d="M512.2,1278.646a8.5,8.5,0,0,0-.649,4.227,11.138,11.138,0,0,0,.772,2.853,8.656,8.656,0,0,0,.334.93c.16.332.067.446-.273.524a1.731,1.731,0,0,0-1.191,2.3,4.026,4.026,0,0,0,.346.559c-.305,0-.613.024-.917,0a1.209,1.209,0,0,1-1.141-1.136,1.189,1.189,0,0,1,1.068-1.23c.61-.085.762-.346.571-.935a28.861,28.861,0,0,1-1.055-3.24,7.787,7.787,0,0,1,.342-4.264c.1-.275.2-.55.294-.829.049-.151.092-.223.28-.152C511.381,1278.4,511.789,1278.518,512.2,1278.646Z" transform="translate(-501.151 -1253.46)" fill="#aa6d35"/>
    <path id="Path_1353" data-name="Path 1353" d="M471.564,1324.288c-.74,0-1.472.034-2.2-.011a1.158,1.158,0,0,1-1.017-1.2,1.178,1.178,0,0,1,1.036-1.146c.578-.081.7-.231.717-.806a10.279,10.279,0,0,1,.157-2.7,4.443,4.443,0,0,1,1.472-2.221,11.72,11.72,0,0,0,1.018,4.467c.049.135.116.25-.1.344a2.282,2.282,0,0,0-1.1,3.15A.52.52,0,0,1,471.564,1324.288Z" transform="translate(-464.057 -1287.711)" fill="#cc8946"/>
    <path id="Path_1354" data-name="Path 1354" d="M614.523,1324.613a2.321,2.321,0,0,0-.105-2.52,1.836,1.836,0,0,0-.826-.707c-.295-.113-.264-.256-.182-.491a16.081,16.081,0,0,0,.875-2.873,9.429,9.429,0,0,0,.122-1.473,2.44,2.44,0,0,1,.581.535,4.3,4.3,0,0,1,1.042,2.8v1.654c0,.457.17.638.623.7a1.187,1.187,0,0,1,1.122,1.287,1.2,1.2,0,0,1-1.292,1.088C615.848,1324.616,615.213,1324.613,614.523,1324.613Z" transform="translate(-594.829 -1288.026)" fill="#cc8946"/>
    <path id="Path_1355" data-name="Path 1355" d="M621.841,1037.365a4.25,4.25,0,0,0-.513,1.089,2.582,2.582,0,0,0,.155,1.427c.606,1.689,1.207,3.381,1.818,5.069a6.86,6.86,0,0,0,.3.666.368.368,0,0,0,.309.23,1.614,1.614,0,0,1-2.295-.918c-.529-1.43-1.029-2.871-1.54-4.308-.143-.4-.3-.8-.424-1.208a1.6,1.6,0,0,1,.491-1.767A1.5,1.5,0,0,1,621.841,1037.365Z" transform="translate(-600.433 -1036.113)" fill="#dcd9eb"/>
    <path id="Path_1356" data-name="Path 1356" d="M556.092,1059.362l.015,6.4c0,.368-.01.735,0,1.1.008.189-.043.257-.242.25q-.642-.023-1.284,0c-.2.007-.241-.064-.241-.251q.015-3.528.014-7.058a.594.594,0,0,1,.589-.456A3.881,3.881,0,0,1,556.092,1059.362Z" transform="translate(-541.608 -1056.038)" fill="#f8f5f5"/>
    <path id="Path_1357" data-name="Path 1357" d="M455.716,1278.7a3.979,3.979,0,0,1-1.674-1.669,4.855,4.855,0,0,1-.46-4.006c.035-.115.028-.285.215-.294l3.4,3.38c.1.1.156.166.019.289A5.772,5.772,0,0,0,455.716,1278.7Z" transform="translate(-450.527 -1248.508)" fill="#f8f5f5"/>
    <path id="Path_1358" data-name="Path 1358" d="M546.986,1152.668c-.093-.287-.24-.515-.581-.531-.457-.068-.6-.2-.672-.667a1.814,1.814,0,0,1,.088-1.008.456.456,0,0,1,.433-.335c.961.013,1.923-.034,2.883.026a.947.947,0,0,1,.805,1.051,1,1,0,0,1-.919.934c-.145.014-.294,0-.44.007-.47.007-.661.184-.687.665-.014.269,0,.539-.008.808-.013.285-.144.462-.457.448-.254-.23-.171-.538-.174-.819C547.258,1153,547.231,1152.789,546.986,1152.668Z" transform="translate(-533.815 -1137.936)" fill="#30579c"/>
    <path id="Path_1359" data-name="Path 1359" d="M537.623,1256.451a.815.815,0,0,1,.727.037,3.838,3.838,0,0,0,3.231.011.959.959,0,0,1,.695-.079,2.633,2.633,0,0,0,1.236.055c.2-.041.217.038.224.2.033.726.038.727-.662.954a9.535,9.535,0,0,1-5.452.2A1.32,1.32,0,0,1,537.623,1256.451Z" transform="translate(-526.356 -1233.764)" fill="#fedf7c"/>
    <path id="Path_1360" data-name="Path 1360" d="M529.651,1081.977c-.112-.1-.072-.227-.072-.345,0-1.126-.042-2.258.009-3.377a5.457,5.457,0,0,1,1.3-3.415c0,2.044.007,4.087.017,6.129a.23.23,0,0,1-.2.258A2.3,2.3,0,0,0,529.651,1081.977Z" transform="translate(-519.263 -1070.043)" fill="#cc8946"/>
    <path id="Path_1361" data-name="Path 1361" d="M541.929,1149.661c-.9,0-1.8.018-2.7,0a.5.5,0,0,0-.539.383,1.978,1.978,0,0,0-.052.974.677.677,0,0,0,.561.623,1.3,1.3,0,0,1-1.266-.385.994.994,0,0,1,.687-1.627,27.9,27.9,0,0,1,3.254-.009C541.889,1149.625,541.909,1149.649,541.929,1149.661Z" transform="translate(-526.606 -1137.444)" fill="#26457c"/>
    <path id="Path_1362" data-name="Path 1362" d="M526.48,1257.09a2.857,2.857,0,0,0,0,1.381,8.107,8.107,0,0,1-1.08-.309.4.4,0,0,1-.328-.467c.023-.564,0-.555.539-.551C525.9,1257.147,526.189,1257.109,526.48,1257.09Z" transform="translate(-515.212 -1234.403)" fill="#fecf63"/>
    <path id="Path_1363" data-name="Path 1363" d="M556.44,1241.8c.215-.258.405-.477.582-.707.1-.122.141-.085.215.015.108.147.236.281.345.428.06.081.224.124.163.248-.051.106-.2.064-.3.075A2.9,2.9,0,0,1,556.44,1241.8Z" transform="translate(-543.502 -1219.911)" fill="#d74953"/>
    <path id="Path_1364" data-name="Path 1364" d="M558.761,1175.94c.317-.06.393.089.381.384a2.7,2.7,0,0,0,.067,1.013c-.332.008-.451-.187-.452-.485S558.759,1176.245,558.761,1175.94Z" transform="translate(-545.59 -1161.207)" fill="#26457c"/>
    <path id="Path_1365" data-name="Path 1365" d="M556.168,1059.036c-.24,0-.482.016-.72,0a1.189,1.189,0,0,0-1.014.44c-.027-.5-.026-.521.472-.5A3.635,3.635,0,0,1,556.168,1059.036Z" transform="translate(-541.684 -1055.711)" fill="#cdcada"/>
    <path id="Path_1366" data-name="Path 1366" d="M599.63,1116.794a1.813,1.813,0,0,1,.375-1.153.615.615,0,0,1,1.008-.02,1.978,1.978,0,0,1,0,2.348.616.616,0,0,1-1.008-.008A1.834,1.834,0,0,1,599.63,1116.794Z" transform="translate(-582.452 -1106.593)"/>
    <path id="Path_1367" data-name="Path 1367" d="M510.879,1116.8a1.822,1.822,0,0,1-.386,1.172.615.615,0,0,1-1.008,0,1.987,1.987,0,0,1,.014-2.348.609.609,0,0,1,.982,0A1.819,1.819,0,0,1,510.879,1116.8Z" transform="translate(-500.816 -1106.599)"/>
  </g>
</svg>
