<svg width="15" height="14" viewBox="0 0 15 14" fill="none" xmlns="http://www.w3.org/2000/svg">
<g clip-path="url(#clip0_8_804)">
<path fill-rule="evenodd" clip-rule="evenodd" d="M0.583915 8.72301C0.322538 7.86675 0.622694 6.7166 1.26858 6.09648L5.3212 2.2054C5.93089 1.62001 7.06036 1.16577 7.90696 1.16577H14.0894C14.3333 1.16577 14.531 1.36289 14.531 1.60608V12.3937C14.531 12.6369 14.3333 12.834 14.0894 12.834H3.04757C2.36611 12.834 1.68512 12.3306 1.48654 11.6801L0.583915 8.72301ZM7.9077 2.26655C7.55218 2.26655 7.10367 2.43984 6.84213 2.67794L2.08903 7.00495C1.7913 7.27599 1.98362 7.77043 2.38679 7.77043H12.9854C13.2293 7.77043 13.427 7.57331 13.427 7.33012V2.70686C13.427 2.46367 13.2293 2.26655 12.9854 2.26655H7.9077ZM12.9854 8.87327C12.9854 8.75053 12.8848 8.65105 12.7657 8.65105H10.9979C10.8766 8.65105 10.7782 8.74866 10.7782 8.87327V9.30945C10.7782 9.43219 10.8788 9.53167 10.9979 9.53167H12.7657C12.887 9.53167 12.9854 9.43406 12.9854 9.30945V8.87327ZM7.9077 3.14717H12.5438V6.88981H3.52539L7.43764 3.32825C7.53636 3.2384 7.77246 3.14717 7.9077 3.14717Z" fill="white"/>
</g>
<defs>
<clipPath id="clip0_8_804">
<rect width="14.0413" height="14" fill="white" transform="translate(0.489746)"/>
</clipPath>
</defs>
</svg>
