<svg width="15" height="14" viewBox="0 0 15 14" fill="none" xmlns="http://www.w3.org/2000/svg">
<g clip-path="url(#clip0_8_807)">
<path d="M13.6465 9.8132V4.1868C14.2788 4.00746 14.7434 3.42577 14.7434 2.73737C14.7434 1.90648 14.0668 1.23047 13.2351 1.23047C12.4034 1.23047 11.7268 1.90648 11.7268 2.73737C11.7268 3.42577 12.1914 4.00746 12.8237 4.1868V6.72656H8.10674V4.1868C8.73911 4.00746 9.20372 3.42577 9.20372 2.73737C9.20372 1.90648 8.5271 1.23047 7.69537 1.23047C6.86364 1.23047 6.18703 1.90648 6.18703 2.73737C6.18703 3.42577 6.65164 4.00746 7.28401 4.1868V6.72656H3.31925C2.93467 6.72656 2.62186 6.41467 2.62186 6.03122V4.1868C3.25423 4.00746 3.71883 3.42577 3.71883 2.73737C3.71883 1.90648 3.04222 1.23047 2.21049 1.23047C1.37876 1.23047 0.702148 1.90648 0.702148 2.73737C0.702148 3.42577 1.16676 4.00746 1.79912 4.1868V6.03122C1.79912 6.86702 2.48099 7.54688 3.31925 7.54688H7.28401V9.8132C6.65164 9.99254 6.18703 10.5742 6.18703 11.2626C6.18703 12.0935 6.86364 12.7695 7.69537 12.7695C8.5271 12.7695 9.20372 12.0935 9.20372 11.2626C9.20372 10.5742 8.73911 9.99254 8.10674 9.8132V7.54688H12.8237V9.8132C12.1914 9.99254 11.7268 10.5742 11.7268 11.2626C11.7268 12.0935 12.4034 12.7695 13.2351 12.7695C14.0668 12.7695 14.7434 12.0935 14.7434 11.2626C14.7434 10.5742 14.2788 9.99254 13.6465 9.8132Z" fill="white"/>
</g>
<defs>
<clipPath id="clip0_8_807">
<rect width="14.0413" height="14" fill="white" transform="translate(0.702148)"/>
</clipPath>
</defs>
</svg>
