<svg xmlns="http://www.w3.org/2000/svg" width="16.607" height="16.607" viewBox="0 0 16.607 16.607">
  <g id="Group_12078" data-name="Group 12078" transform="translate(-13.892 -13.892)">
    <g id="Group_8" data-name="Group 8" transform="translate(13.892 13.892)">
      <g id="google">
        <path id="Path_11" data-name="Path 11" d="M41.6,336.376a5.053,5.053,0,0,1-4.372-2.529l-2.816,1.623a8.3,8.3,0,0,0,11.339,3.043v0l-1.627-2.816A5.017,5.017,0,0,1,41.6,336.376Z" transform="translate(-33.295 -323.019)" fill="#fff"/>
        <path id="Path_12" data-name="Path 12" d="M260.152,393.6v0l-1.627-2.816a5.017,5.017,0,0,1-2.525.683v3.249A8.29,8.29,0,0,0,260.152,393.6Z" transform="translate(-247.697 -378.104)" fill="#fff"/>
        <path id="Path_13" data-name="Path 13" d="M3.249,132.267a5.017,5.017,0,0,1,.683-2.525l-2.816-1.623a8.265,8.265,0,0,0,0,8.3l2.816-1.623A5.017,5.017,0,0,1,3.249,132.267Z" transform="translate(0 -123.963)" fill="#fff"/>
        <path id="Path_14" data-name="Path 14" d="M41.6,3.249A5.031,5.031,0,0,1,44.807,4.4a.539.539,0,0,0,.726-.033l1.533-1.533a.546.546,0,0,0-.031-.8A8.285,8.285,0,0,0,34.411,4.156l2.816,1.623A5.053,5.053,0,0,1,41.6,3.249Z" transform="translate(-33.295)" fill="#fff"/>
        <path id="Path_15" data-name="Path 15" d="M259.209,4.4a.539.539,0,0,0,.726-.033l1.533-1.533a.546.546,0,0,0-.031-.8A8.278,8.278,0,0,0,256,0V3.249A5.031,5.031,0,0,1,259.209,4.4Z" transform="translate(-247.697)" fill="#fff"/>
        <path id="Path_10" data-name="Path 10" d="M274.446,211.479h-6.774a.542.542,0,0,0-.542.542v2.164a.542.542,0,0,0,.542.542h3.815a5.093,5.093,0,0,1-2.192,2.569l1.627,2.816a8.142,8.142,0,0,0,4.152-7.121,5.488,5.488,0,0,0-.093-1.063A.544.544,0,0,0,274.446,211.479Z" transform="translate(-258.467 -204.62)" fill="#fff"/>
      </g>
    </g>
  </g>
</svg>
