<svg xmlns="http://www.w3.org/2000/svg" width="105.316" height="97.434" viewBox="0 0 105.316 97.434">
  <g id="Group_583" data-name="Group 583" transform="matrix(0.996, -0.087, 0.087, 0.996, 1.255, 9.449)">
    <path id="Path_592" data-name="Path 592" d="M306.436,145.965A10.533,10.533,0,0,1,298,129.143l-24.958-21.072a.786.786,0,0,1-.252-.137L249.02,87.861a10.547,10.547,0,0,1-14.413.777l.529-.7-.566.666a10.522,10.522,0,0,1,5.952-18.466,10.516,10.516,0,1,1,18.9,5.4l23.16,19.554a.638.638,0,0,1,.252.137l25.577,21.59a10.508,10.508,0,1,1,8.495,17.726,10.457,10.457,0,0,1-9.564,11.382C307.039,145.954,306.74,145.965,306.436,145.965Z" transform="translate(-230.875 -58.747)" fill="none" stroke="#cc8946" stroke-miterlimit="10" stroke-width="2"/>
  </g>
</svg>
