<svg id="Group_582" data-name="Group 582" xmlns="http://www.w3.org/2000/svg" width="22.356" height="24.635" viewBox="0 0 22.356 24.635">
  <path id="Path_22" data-name="Path 22" d="M2033.79,1074.229a3.006,3.006,0,0,0-.667-.547,10.193,10.193,0,0,1-.981-.726c-.577-.49-1.113-1.029-1.656-1.555l-3.823-3.692q1.262-1.362,2.489-2.757c.875-1,1.788-1.983,2.588-3.041a2.257,2.257,0,0,0,.556-1.488,1.3,1.3,0,0,0-.769-1.157,1.684,1.684,0,0,0-1.574.369c-.53.386-1.007.854-1.5,1.286l-4.661,4.093a.281.281,0,0,0-.121-.144c-2.445-1.508-4.308-3.729-6.321-5.738-.443-.442-.942-1-1.627-.964a.935.935,0,0,0-.9,1.185,1.7,1.7,0,0,0,.327.617,10.534,10.534,0,0,1-2.424,2.246c-.309.207-.019.71.293.5a11.339,11.339,0,0,0,2.532-2.328c.2.185.42.356.61.523l.057.05-2.884,2.951c-.261.267.148.678.41.41l2.91-2.978.731.644q-1.333,1.388-2.788,2.65c-.282.245.129.654.41.41q1.468-1.273,2.814-2.676l.15.132.638.563-2.641,2.388c-.278.251.134.66.41.41l2.668-2.413.578.509-.009.008-2.751,2.924c-.256.272.154.683.41.41l2.751-2.924a.344.344,0,0,0,.031-.038l.781.689-2.88,2.634c-.276.253.135.662.41.41l2.906-2.659.616.542a19.445,19.445,0,0,1-3.111,3.177c-.29.236.122.644.41.41l.2-.167a2.273,2.273,0,0,0-.088,1.281l-.038.014-1.725.765-.863.382a1.547,1.547,0,0,0-.583.369l0,.005a3.805,3.805,0,0,0-3.019.225c-.779.407-1.755,1.312-1.136,2.247.6.9,1.882.721,2.717.306a3.456,3.456,0,0,0,1.741-2.092.726.726,0,0,1,.481-.517c.286-.13.575-.255.863-.382l1.788-.793a1.5,1.5,0,0,0,.4.415.249.249,0,0,0,.095.184,1.748,1.748,0,0,0,.467.289q-.828,1.779-1.775,3.5a3.657,3.657,0,0,0-2.217,1.635,2.406,2.406,0,0,0-.262,2.3,1.265,1.265,0,0,0,.159.236h0a2.9,2.9,0,0,0,1.965,3.035c.356.116.508-.444.154-.559a2.319,2.319,0,0,1-1.554-2.125,1.741,1.741,0,0,0,1.42-.358,4.11,4.11,0,0,0,1.419-2.425,1.669,1.669,0,0,0-.465-1.666q.921-1.689,1.728-3.435a2.254,2.254,0,0,0,.582-.032,2.2,2.2,0,0,0,.319-.085l-.109.112c-.261.267.148.677.41.41l1.08-1.1a.272.272,0,0,0,.022-.369c.687-.654,1.346-1.342,2-2.038q.409.4.823.8a21.613,21.613,0,0,1-3.134,3.281c-.285.242.127.651.41.41a22.161,22.161,0,0,0,3.144-3.293q.294.277.591.55-1.621,1.886-3.387,3.637a.29.29,0,0,0,.41.41q1.776-1.758,3.4-3.657.32.292.645.581l-3.1,3.153c-.262.267.148.677.41.41l3.122-3.178q.332.292.668.581-1.586,1.771-3.336,3.383c-.275.253.136.663.41.41q1.766-1.625,3.366-3.417.283.24.568.477a.255.255,0,0,0-.231.087l-3.169,3.385c-.255.272.154.683.41.41l3.169-3.385a.275.275,0,0,0,.059-.3q.394.326.792.646l-3.6,3.459c-.27.259.141.669.41.41l3.644-3.5q.226.179.453.356l.031.025a43.185,43.185,0,0,0-3.431,3.608c-.24.283.168.7.41.41a43.175,43.175,0,0,1,3.479-3.653c.116.091.234.18.356.261a.545.545,0,0,0,.755-.229A1.164,1.164,0,0,0,2033.79,1074.229Zm-18.164-.972a2.871,2.871,0,0,1-.781.92c-.562.432-1.691.886-2.3.314-.741-.692.581-1.5,1.144-1.71a3.256,3.256,0,0,1,2.145-.06A3.447,3.447,0,0,1,2015.626,1073.257Zm3.462,4.454a3.149,3.149,0,0,1-1.275,1.714.8.8,0,0,1-.914.011.948.948,0,0,1-.275-.709,2.889,2.889,0,0,1,2.309-2.607.282.282,0,0,0,.038-.012C2019.471,1076.368,2019.225,1077.316,2019.088,1077.711Zm.121-14.885-1.691-1.491c-.562-.495-1.151-.97-1.688-1.492a1.481,1.481,0,0,1-.445-.644c-.071-.282.137-.459.412-.453a1.248,1.248,0,0,1,.768.426c.237.224.465.457.694.69.908.921,1.789,1.87,2.717,2.771a20.048,20.048,0,0,0,3.4,2.737l0,0-.67.589a.274.274,0,0,0-.083-.12Zm2.743,4.576,1.571-1.38,5.576-4.9c.382-.335,1.635-1.684,2.287-1.3q-1.274,1.05-2.551,2.1-3.942,3.224-7.924,6.4C2021.248,1068,2021.607,1067.7,2021.952,1067.4Zm1.072,3.269c-.609.6-1.7,1.4-2.538.755a.26.26,0,0,0-.141-.238,1.184,1.184,0,0,1-.516-1.18,1.566,1.566,0,0,1,.042-.235.3.3,0,0,0,.219-.066q1.3-1.035,2.6-2.076,4.529-3.627,9-7.318a1.541,1.541,0,0,1-.357,1.165c-.325.461-.719.881-1.083,1.31q-2.322,2.727-4.776,5.337C2024.675,1068.983,2023.866,1069.846,2023.024,1070.671Zm10.391,4.662c-.122-.093-.243-.188-.365-.282a.331.331,0,0,0-.15-.116q-2.583-2.005-5-4.214a.32.32,0,0,0-.258-.236q-.959-.884-1.89-1.8l.513-.552,4.183,4.039a16.648,16.648,0,0,0,2.1,1.824,2.8,2.8,0,0,1,.874.709A.548.548,0,0,1,2033.415,1075.333Z" transform="translate(-2011.742 -1058.166)" fill="#bdc3c7"/>
  <path id="Path_23" data-name="Path 23" d="M2183.376,1266a.8.8,0,0,0,.985-.705.915.915,0,0,0-.338-.813.312.312,0,0,0-.268-.4,1.08,1.08,0,0,0-1.146.884A.949.949,0,0,0,2183.376,1266Zm-.189-.982a.438.438,0,0,1,.192-.264.239.239,0,0,0,.2.158c.321.06.271.618-.1.516A.359.359,0,0,1,2183.187,1265.019Z" transform="translate(-2173.59 -1253.222)" fill="#bdc3c7"/>
</svg>
