<svg xmlns="http://www.w3.org/2000/svg" width="34.317" height="37.692" viewBox="0 0 34.317 37.692">
  <g id="home" transform="translate(0)">
    <path id="Path_1272" data-name="Path 1272" d="M419.4,1063.862H392.361a1.08,1.08,0,0,1-.9-1.122c-.016-.564-.021-1.128,0-1.692a1.092,1.092,0,0,1,.736-1.08c.312-.109.363-.295.362-.583q-.011-3.918,0-7.838v-6.733a1.368,1.368,0,0,0-.023-.393c-.135-.046-.184.064-.252.12a2.213,2.213,0,0,1-2.9-.058,2.252,2.252,0,0,1-.264-2.865,2.809,2.809,0,0,1,.535-.6c.644-.531,1.2-1.157,1.8-1.735,1.178-1.139,2.345-2.3,3.521-3.437,1.749-1.7,3.487-3.406,5.24-5.1,1.4-1.353,2.773-2.735,4.189-4.071a1.885,1.885,0,0,1,1.111-.491h.735a2.006,2.006,0,0,1,1.341.723c1.755,1.707,3.518,3.4,5.255,5.126a.229.229,0,0,0,.141.072c0-.577.007-1.144-.008-1.713,0-.149-.109-.2-.236-.24a1.253,1.253,0,0,1-.926-1.3c-.023-.477-.009-.956,0-1.434a1.615,1.615,0,0,1,.117-.573.948.948,0,0,1,.976-.621h5.69a.981.981,0,0,1,.957.968,10.619,10.619,0,0,1,0,1.943,1.056,1.056,0,0,1-.774.975.466.466,0,0,0-.382.561,4.107,4.107,0,0,1,0,.66.7.7,0,0,1-.513.687c-.506.009-.634-.077-.778-.518-.018-.33-.011-.661-.007-.992,0-.207-.058-.319-.295-.318-.722,0-1.443.009-2.16.007-.245,0-.354.11-.354.356v2.573a.788.788,0,0,0,.295.569c.814.813,1.61,1.643,2.5,2.4.023-.73,0-1.456.019-2.181.142-.445.269-.531.773-.526a.748.748,0,0,1,.525.827c.006.9.016,1.791,0,2.686a1.086,1.086,0,0,0,.393.936c1.143.965,2.1,2.121,3.234,3.1a2.472,2.472,0,0,1,1.007,2.031,2.042,2.042,0,0,1-1.17,1.858,2.111,2.111,0,0,1-2.229-.148c-.121-.079-.2-.213-.362-.244-.1.118-.06.258-.06.385q0,7.249-.009,14.5a.621.621,0,0,0,.436.693,1.077,1.077,0,0,1,.662,1.023c.029.589.027,1.178,0,1.767A1.056,1.056,0,0,1,419.4,1063.862Z" transform="translate(-388.73 -1026.17)"/>
    <path id="Path_1273" data-name="Path 1273" d="M633.408,1026.141a.068.068,0,0,1,.029-.061h5.878l.006.071Z" transform="translate(-609.382 -1026.08)" fill="#121212"/>
    <path id="Path_1274" data-name="Path 1274" d="M468.881,1104.45a.592.592,0,0,0-.679-.519c-.878.006-1.757.006-2.635.009-.16-.244.036-.4.163-.54a22.081,22.081,0,0,1,1.612-1.6c.092-.08.19-.153.276-.241,1.522-1.571,3.117-3.075,4.686-4.6,1.367-1.329,2.688-2.706,4.1-3.985.088-.079.163-.189.308-.162l3.405,3.3q3.45,3.359,6.9,6.72a.725.725,0,0,1,.248.571q-.011,8.131,0,16.261c0,.3-.07.385-.379.384q-6.023-.017-12.045,0c-.326,0-.425-.069-.424-.415q.018-7.193.008-14.386c0-1-.314-1.311-1.32-1.311h-2.017c-.491,0-.619.1-.76.564A1.562,1.562,0,0,1,468.881,1104.45Z" transform="translate(-457.969 -1086.254)" fill="#f8fbff"/>
    <path id="Path_1275" data-name="Path 1275" d="M453.32,1079.145c-.5.428-.958.906-1.436,1.36-1.444,1.375-2.848,2.789-4.273,4.185-1.134,1.115-2.253,2.245-3.413,3.33-.571.535-1.122,1.089-1.683,1.635a.843.843,0,0,0-.345.619,1.09,1.09,0,0,0-.764,1.185c.01,4.831,0,9.664.013,14.5,0,.332-.075.451-.418.422a10.453,10.453,0,0,0-1.178,0c-.188.006-.277-.047-.252-.245a1.44,1.44,0,0,0,0-.184q0-8.076-.007-16.151a.844.844,0,0,1,.285-.668q5.817-5.649,11.61-11.319c.227-.222.337-.2.537.012C452.422,1078.276,452.877,1078.706,453.32,1079.145Z" transform="translate(-434.571 -1072.589)" fill="#e4f0f9"/>
    <path id="Path_1276" data-name="Path 1276" d="M491.154,1244.764c1.714-.013,3.429-.039,5.143.014a.652.652,0,0,1,.036.359v11.473c0,.415,0,.415-.414.415h-4.44c-.378,0-.417-.038-.44-.411-.006-.1,0-.2,0-.295v-10.884A.973.973,0,0,1,491.154,1244.764Z" transform="translate(-480.986 -1223.274)" fill="#e09c5f"/>
    <path id="Path_1277" data-name="Path 1277" d="M417.213,1040.1c-.459-.352-.642-.339-1.069.078l-13.61,13.266a1.158,1.158,0,0,1-.824.423.967.967,0,0,1-.778-1.553,3.219,3.219,0,0,1,.305-.318l14.631-14.268a1.011,1.011,0,0,1,1.65-.013c.376.367.744.742,1.116,1.114a11.879,11.879,0,0,0-.989.838,1.928,1.928,0,0,1-.433.433Z" transform="translate(-399.555 -1036.197)" fill="#ff4756"/>
    <path id="Path_1278" data-name="Path 1278" d="M455.836,1381.284c.135-.006.269-.016.4-.016q11.407,0,22.813-.009c.349,0,.479.073.442.438a7.055,7.055,0,0,0,0,1.029c.009.2-.066.269-.253.243a1.034,1.034,0,0,0-.11,0h-23c-.1,0-.2-.008-.295-.012A2.485,2.485,0,0,1,455.836,1381.284Z" transform="translate(-449.115 -1346.382)" fill="#f3e5d2"/>
    <path id="Path_1279" data-name="Path 1279" d="M568.55,1054.2a3.175,3.175,0,0,1,1.427-1.271l4.432,4.292q4.567,4.447,9.132,8.9a1.182,1.182,0,0,1,.474.911.958.958,0,0,1-1.46.8,1.589,1.589,0,0,1-.283-.232q-6.8-6.628-13.6-13.257C568.625,1054.3,568.594,1054.247,568.55,1054.2Z" transform="translate(-550.892 -1050.293)" fill="#ff656f"/>
    <path id="Path_1280" data-name="Path 1280" d="M471.854,1244.753q0,5.9-.007,11.8c0,.334.081.437.425.433q2.165-.029,4.329,0c.338,0,.4-.108.4-.419q-.013-5.9,0-11.8c.113.1.061.23.061.345q0,5.778.009,11.555c0,.3-.077.393-.386.393q-3.339-.023-6.684-.006c-.295,0-.367-.086-.366-.372q.014-5.777,0-11.555c0-.306.082-.4.393-.393C470.63,1244.759,471.242,1244.749,471.854,1244.753Z" transform="translate(-461.686 -1223.262)" fill="#cc8946"/>
    <path id="Path_1281" data-name="Path 1281" d="M491.934,1211.38a10.062,10.062,0,0,0,1.45.046.636.636,0,0,0,.743.543c.66-.017,1.321,0,1.982,0,.117,0,.274-.033.27.154a6.509,6.509,0,0,1-.044,1.383.493.493,0,0,1-.286.034h-4.537c-.373,0-.418-.041-.437-.411-.011-.232,0-.464,0-.7,0-.284.081-.479.41-.462A.59.59,0,0,0,491.934,1211.38Z" transform="translate(-481.022 -1193.184)" fill="#e09c5f"/>
    <path id="Path_1282" data-name="Path 1282" d="M650.988,1069.642v2.436c-.369-.344-.693-.633-1-.936-.589-.571-1.163-1.155-1.753-1.722a.687.687,0,0,1-.236-.545c.012-.894.014-1.787,0-2.68,0-.284.075-.393.372-.382.77.018,1.54.013,2.309,0,.261-.006.342.082.327.336-.021.353-.012.709-.015,1.064-.235-.1-.159-.306-.163-.472-.017-.808.1-.738-.8-.749-.279,0-.4.092-.393.383.01.943,0,1.888,0,2.833a.994.994,0,0,0,.278.7c.277.295.569.573.9.912.013-.309-.005-.562.012-.812C650.836,1069.869,650.795,1069.7,650.988,1069.642Z" transform="translate(-622.536 -1061.911)" fill="#6d1313"/>
    <path id="Path_1283" data-name="Path 1283" d="M665.043,1070a9.1,9.1,0,0,0-.084,1.329c-.4-.385-.817-.757-1.2-1.156a.762.762,0,0,1-.176-.545c.008-1.015.013-2.031,0-3.044,0-.288.1-.365.362-.341.326.03.738-.131.958.064s.049.625.081.949c.011.106-.027.222.063.313.079.373.335.478.679.45a.264.264,0,0,0-.146.26c.011.337.012.675,0,1.011a.273.273,0,0,0,.149.258C665.378,1069.513,665.122,1069.622,665.043,1070Z" transform="translate(-636.59 -1062.265)" fill="#752626"/>
    <path id="Path_1284" data-name="Path 1284" d="M649.788,1037.334c1.186,0,2.372,0,3.559-.014.183,0,.266.043.26.245-.013.4-.012.809,0,1.214.006.2-.074.25-.259.249-1.211-.011-2.422-.014-3.633-.019a2.973,2.973,0,0,1-.055-1.554C649.669,1037.393,649.734,1037.362,649.788,1037.334Z" transform="translate(-623.968 -1036.216)" fill="#752626"/>
    <path id="Path_1285" data-name="Path 1285" d="M431.484,1381.311v1.669c-.853,0-1.708,0-2.561.015-.17,0-.241-.048-.236-.228.01-.415.009-.832,0-1.247,0-.177.063-.233.235-.231C429.777,1381.3,430.631,1381.306,431.484,1381.311Z" transform="translate(-424.764 -1346.409)" fill="#c6a57d"/>
    <path id="Path_1286" data-name="Path 1286" d="M472.11,1217.25a.35.35,0,0,0-.295.442c.05.346-.147.794.085,1.023.215.212.653.061.992.064,1.358.009,2.715.006,4.073.007-.1.105-.231.056-.347.057-2.211,0-4.419-.007-6.635,0-.3,0-.417-.072-.393-.385a6.957,6.957,0,0,0,0-.917c-.009-.213.046-.307.282-.3C470.619,1217.256,471.364,1217.249,472.11,1217.25Z" transform="translate(-461.648 -1198.467)" fill="#cc8946"/>
    <path id="Path_1287" data-name="Path 1287" d="M637.6,1037.277a7.92,7.92,0,0,0-.073,1.669c-.4,0-.8,0-1.2.017-.186.006-.262-.058-.258-.25.01-.4.011-.8,0-1.2,0-.2.071-.255.256-.25C636.748,1037.275,637.175,1037.273,637.6,1037.277Z" transform="translate(-611.78 -1036.159)" fill="#6d1313"/>
    <path id="Path_1288" data-name="Path 1288" d="M580,1213.319v6c0,.872-.323,1.194-1.2,1.194h-7.235c-.838,0-1.187-.344-1.187-1.179v-12.068c0-.828.36-1.184,1.188-1.184h7.266c.805,0,1.159.355,1.16,1.167Q580,1210.285,580,1213.319Z" transform="translate(-552.542 -1188.405)"/>
    <path id="Path_1289" data-name="Path 1289" d="M506.9,1284.212a1.634,1.634,0,0,1-1.649,1.658,1.655,1.655,0,1,1,1.649-1.658Z" transform="translate(-492.311 -1257.374)"/>
    <path id="Path_1290" data-name="Path 1290" d="M628.045,1246.824c0,.613-.007,1.226,0,1.837,0,.2-.044.277-.261.275q-1.32-.02-2.64,0c-.215,0-.266-.072-.264-.274q.012-1.837,0-3.674c0-.2.05-.281.265-.279q1.32.016,2.641,0c.22,0,.262.081.259.279C628.039,1245.6,628.045,1246.211,628.045,1246.824Z" transform="translate(-601.69 -1223.241)" fill="#60b7fd"/>
    <path id="Path_1291" data-name="Path 1291" d="M628.064,1301.075c0,.589-.01,1.178,0,1.768.006.228-.042.319-.295.314q-1.277-.024-2.565,0c-.246.005-.308-.072-.305-.309q.017-1.8,0-3.6c0-.232.049-.317.3-.312.867.016,1.734.013,2.6,0,.211,0,.268.065.264.27C628.056,1299.828,628.063,1300.451,628.064,1301.075Z" transform="translate(-601.708 -1272.144)" fill="#60b7fd"/>
    <path id="Path_1292" data-name="Path 1292" d="M583.8,1248.925c-.671,0-1.341,0-2.012.015-.171,0-.238-.046-.237-.226q.009-1.871,0-3.74c0-.187.056-.261.249-.256.646.015,1.292.017,1.938.023a.56.56,0,0,1,.109.38c.007,1.2,0,2.4,0,3.594A.392.392,0,0,1,583.8,1248.925Z" transform="translate(-562.616 -1223.248)" fill="#23a7fd"/>
    <path id="Path_1293" data-name="Path 1293" d="M583.738,1303.094c-.646.006-1.293,0-1.94.02-.2,0-.248-.067-.247-.254q.009-1.854,0-3.708c0-.189.052-.257.247-.253.646.015,1.293.013,1.94.018a.6.6,0,0,1,.112.452q.006,1.638,0,3.275A.6.6,0,0,1,583.738,1303.094Z" transform="translate(-562.616 -1272.108)" fill="#23a7fd"/>
    <path id="Path_1294" data-name="Path 1294" d="M607.684,1217.626a7.036,7.036,0,0,1-.012,1.48.544.544,0,0,1-.288.031H602.8c-.377,0-.418-.04-.442-.409-.071-1.133-.071-1.133,1.04-1.133h3.891A.811.811,0,0,1,607.684,1217.626Z" transform="translate(-581.354 -1198.78)" fill="#23a7fc"/>
    <path id="Path_1295" data-name="Path 1295" d="M588.908,1217.208c-1.614,0-3.229.008-4.842,0-.285,0-.4.072-.373.37a3.025,3.025,0,0,1,0,.66c-.039.347.073.462.436.457,1.492-.021,2.983-.009,4.475-.009h.295c-.091.1-.208.048-.311.048q-3.355,0-6.711.007c-.295,0-.386-.086-.364-.373a5.625,5.625,0,0,0,0-.884c-.022-.278.076-.349.35-.347,2.017.012,4.034,0,6.051.01A2.289,2.289,0,0,1,588.908,1217.208Z" transform="translate(-562.579 -1198.362)" fill="#0192f8"/>
    <path id="Path_1296" data-name="Path 1296" d="M603.83,1303.073v-4.179c.973-.057.973-.057.973.9,0,1-.006,2.009,0,3.013,0,.22-.049.313-.283.29S604.062,1303.079,603.83,1303.073Z" transform="translate(-582.708 -1272.087)" fill="#5fb7fd"/>
    <path id="Path_1297" data-name="Path 1297" d="M603.825,1248.813a.724.724,0,0,1-.063-.393v-3.791c.973-.087.973-.087.973.85,0,1-.009,2,.006,3,0,.262-.045.393-.335.348A4.993,4.993,0,0,0,603.825,1248.813Z" transform="translate(-582.642 -1223.135)" fill="#5fb7fd"/>
    <path id="Path_1298" data-name="Path 1298" d="M515.909,1294.374a.54.54,0,0,1-.555.548.555.555,0,0,1-.544-.528.574.574,0,0,1,.543-.573.556.556,0,0,1,.556.554Z" transform="translate(-502.429 -1267.529)" fill="#dce8f7"/>
  </g>
</svg>
