<svg xmlns="http://www.w3.org/2000/svg" width="18.501" height="18.501" viewBox="0 0 18.501 18.501">
  <g id="iconfinder_430089_circle_currency_dollar_money_icon" transform="translate(-13.87 -13.878)">
    <path id="Path_625" data-name="Path 625" d="M23.122,32.379h0a9.25,9.25,0,1,1,9.25-9.25A9.261,9.261,0,0,1,23.121,32.379Zm0-17.763a8.512,8.512,0,1,0,0,17.025h0a8.512,8.512,0,0,0,0-17.025Z" transform="translate(0 0)" fill="#cc8946"/>
    <g id="Group_588" data-name="Group 588" transform="translate(20.214 16.53)">
      <path id="Path_626" data-name="Path 626" d="M51.243,46.042a2.914,2.914,0,0,1-2.995-2.817.369.369,0,1,1,.738,0,2.264,2.264,0,1,0,2.257-2.079,2.823,2.823,0,1,1,0-5.635,3.067,3.067,0,0,1,2.294,1.007.369.369,0,1,1-.551.491,2.329,2.329,0,0,0-1.744-.76,2.086,2.086,0,1,0,0,4.158,2.823,2.823,0,1,1,0,5.635Z" transform="translate(-48.248 -34.171)" fill="#cc8946"/>
      <path id="Path_627" data-name="Path 627" d="M62.4,41.463a.369.369,0,0,1-.369-.369V28.621a.369.369,0,1,1,.738,0V41.094A.369.369,0,0,1,62.4,41.463Z" transform="translate(-59.488 -28.252)" fill="#cc8946"/>
    </g>
  </g>
</svg>
