<svg id="iconfinder_3775238_animal_dog_grooming_pet_shampoo_icon" xmlns="http://www.w3.org/2000/svg" width="27.451" height="25.276" viewBox="0 0 27.451 25.276">
  <rect id="Rectangle_389" data-name="Rectangle 389" width="0.848" height="1.33" transform="translate(2.028 13.027)" fill="#bdc3c7"/>
  <rect id="Rectangle_390" data-name="Rectangle 390" width="0.848" height="1.308" transform="translate(2.028 9.453)" fill="#bdc3c7"/>
  <rect id="Rectangle_391" data-name="Rectangle 391" width="1.308" height="0.848" transform="translate(0 11.481)" fill="#bdc3c7"/>
  <rect id="Rectangle_392" data-name="Rectangle 392" width="1.353" height="0.848" transform="translate(3.552 11.481)" fill="#bdc3c7"/>
  <path id="Path_78" data-name="Path 78" d="M171.864,77.227h-8.228v.092h0v4.793h-.051a2.068,2.068,0,0,0-2.065,2.065v.172h-2.5V102.5H172.6V84.349h-2.5v-.172a2.068,2.068,0,0,0-2.065-2.065h-.051v-2.28h2.975a.667.667,0,0,1,.666.666v.76h2.831V79.827A2.6,2.6,0,0,0,171.864,77.227Zm-7.382,2.6V78.167h2.663v3.944h-2.663Zm7.275,21.823H159.869V88.208a2.366,2.366,0,0,1,.937.4,3.232,3.232,0,0,0,3.633,0,2.39,2.39,0,0,1,2.738,0,3.233,3.233,0,0,0,3.633,0,2.361,2.361,0,0,1,.945-.4v13.448ZM170.108,85.2h1.648v2.153a3.083,3.083,0,0,0-1.393.535,2.39,2.39,0,0,1-2.738,0,3.233,3.233,0,0,0-3.633,0,2.389,2.389,0,0,1-2.738,0,3.086,3.086,0,0,0-1.385-.534V85.2h10.239Zm-2.065-2.238a1.219,1.219,0,0,1,1.217,1.217v.172h-6.895v-.172a1.219,1.219,0,0,1,1.217-1.217h4.461Zm5.572-2.55h-1.136a1.516,1.516,0,0,0-1.512-1.426h-2.975v-.908h3.871a1.753,1.753,0,0,1,1.751,1.751Z" transform="translate(-152.151 -77.227)" fill="#bdc3c7"/>
  <path id="Path_79" data-name="Path 79" d="M203.666,306.874a4.463,4.463,0,0,1-1.161-1.244,2.374,2.374,0,0,0-3.992,0,4.464,4.464,0,0,1-1.161,1.244,2.377,2.377,0,0,0,1.361,4.326H202.3a2.377,2.377,0,0,0,1.361-4.326Zm-1.361,3.478h-3.592a1.528,1.528,0,0,1-.874-2.783,5.3,5.3,0,0,0,1.386-1.476,1.525,1.525,0,0,1,2.569,0,5.306,5.306,0,0,0,1.386,1.476,1.528,1.528,0,0,1-.874,2.783Z" transform="translate(-186.826 -288.471)" fill="#bdc3c7"/>
  <path id="Path_80" data-name="Path 80" d="M187.2,288.591v-.848a1.162,1.162,0,1,0-2.323,0v.848a1.162,1.162,0,1,0,2.323,0Zm-1.475,0v-.848a.313.313,0,0,1,.627,0v.848a.313.313,0,1,1-.627,0Z" transform="translate(-176.183 -271.782)" fill="#bdc3c7"/>
  <path id="Path_81" data-name="Path 81" d="M293.607,286.582a1.163,1.163,0,0,0-1.162,1.162v.848a1.162,1.162,0,1,0,2.323,0v-.848A1.163,1.163,0,0,0,293.607,286.582Zm.313,2.009a.313.313,0,1,1-.627,0v-.848a.313.313,0,0,1,.627,0Z" transform="translate(-276.143 -271.782)" fill="#bdc3c7"/>
  <path id="Path_82" data-name="Path 82" d="M219.967,260.794a1.163,1.163,0,0,0,1.162-1.162v-.848a1.162,1.162,0,0,0-2.323,0v.848A1.163,1.163,0,0,0,219.967,260.794Zm-.313-2.009a.313.313,0,0,1,.627,0v.848a.313.313,0,0,1-.627,0Z" transform="translate(-207.709 -244.87)" fill="#bdc3c7"/>
  <path id="Path_83" data-name="Path 83" d="M259.683,260.794a1.163,1.163,0,0,0,1.162-1.162v-.848a1.162,1.162,0,0,0-2.323,0v.848A1.163,1.163,0,0,0,259.683,260.794Zm-.313-2.009a.313.313,0,0,1,.627,0v.848a.313.313,0,0,1-.627,0Z" transform="translate(-244.617 -244.87)" fill="#bdc3c7"/>
  <rect id="Rectangle_393" data-name="Rectangle 393" width="0.848" height="1.33" transform="translate(24.575 21.813)" fill="#bdc3c7"/>
  <rect id="Rectangle_394" data-name="Rectangle 394" width="0.848" height="1.308" transform="translate(24.575 18.239)" fill="#bdc3c7"/>
  <rect id="Rectangle_395" data-name="Rectangle 395" width="1.308" height="0.848" transform="translate(22.546 20.267)" fill="#bdc3c7"/>
  <rect id="Rectangle_396" data-name="Rectangle 396" width="1.353" height="0.848" transform="translate(26.098 20.267)" fill="#bdc3c7"/>
</svg>
