<svg xmlns="http://www.w3.org/2000/svg" width="23.412" height="20.395" viewBox="0 0 23.412 20.395">
  <g id="iconfinder_3775252_barber_dog_groomer_grooming_hair_icon" transform="translate(-91.272 -62.345)">
    <path id="Path_84" data-name="Path 84" d="M3.127,0H0V.632H1.828v.885H0v.632H1.828V3.1H0v.632H1.828v.948H0v.632H1.828v.948H0v.632H1.828v.948H0v.632H1.828v.948H0v.632H1.828V11H0v.632H1.828v.948H0v.632H1.828v.948H0v.632H1.828v.948H0v.632H1.828v.948H0v.632H1.828v.813H0v.632H3.127A1.479,1.479,0,0,0,4.6,17.914V1.477A1.479,1.479,0,0,0,3.127,0Zm.846,17.914a.847.847,0,0,1-.846.846H2.46V.632h.667a.847.847,0,0,1,.846.846Z" transform="matrix(0.921, -0.391, 0.391, 0.921, 102.868, 64.517)" fill="#cc8946"/>
    <path id="Path_85" data-name="Path 85" d="M102.2,76.881a2.338,2.338,0,0,0-2.071,1.144l-.693-2.388-.119-.5a1.233,1.233,0,0,0,.769-1.1,1.135,1.135,0,0,0-.3-.756,5.309,5.309,0,0,0,1.5-2.453l1.288-5.577-1.552-2.9-2.371,10-2.371-10-1.552,2.9,1.285,5.566,0,.011a5.31,5.31,0,0,0,1.508,2.459,1.134,1.134,0,0,0-.291.75A1.231,1.231,0,0,0,98,75.13l-.188.794-.57,2.071a2.344,2.344,0,0,0-2.054-1.113,2.16,2.16,0,0,0-2.291,1.994v1.87a2.313,2.313,0,0,0,4.581,0v-.9l1.013-3.68h0l.025-.106.143-.519.068.235.092.39.02,0,1.069,3.685v.9a2.313,2.313,0,0,0,4.581,0v-1.87A2.161,2.161,0,0,0,102.2,76.881Zm-5.45,3.864a1.58,1.58,0,0,1-3.13,0v-1.87a1.58,1.58,0,0,1,3.13,0Zm4.545-16.4.526.984-1.237,5.357a4.692,4.692,0,0,1-1.3,2.139Zm-4.566,6.341-1.237-5.357.526-.984,2.01,8.48A4.692,4.692,0,0,1,96.728,70.684Zm2.131,3.932a.792.792,0,0,1-.408,0,.72.72,0,0,1-.294-.16.567.567,0,0,1-.194-.419.543.543,0,0,1,.081-.283.675.675,0,0,1,.345-.276.79.79,0,0,1,.533,0,.679.679,0,0,1,.353.274.544.544,0,0,1,.085.29.569.569,0,0,1-.2.428A.723.723,0,0,1,98.859,74.616Zm4.9,6.129a1.58,1.58,0,0,1-3.13,0v-1.87a1.58,1.58,0,0,1,3.13,0Z" transform="translate(-1.621)" fill="#cc8946"/>
  </g>
</svg>
