<svg xmlns="http://www.w3.org/2000/svg" width="20.501" height="13.348" viewBox="0 0 20.501 13.348">
  <path id="iconfinder_3586360_email_envelope_mail_send_icon" d="M27.446,34.239a.353.353,0,0,0,.019-.109V21.5a.351.351,0,0,0-.019-.11s0-.01,0-.014a.355.355,0,0,0-.066-.109s0,0,0-.007l0,0a.358.358,0,0,0-.105-.077l-.009,0a.352.352,0,0,0-.122-.029H7.3a.356.356,0,0,0-.123.03l-.007,0a.353.353,0,0,0-.107.078l0,0s0,0,0,.007a.357.357,0,0,0-.066.11s0,.01,0,.015a.351.351,0,0,0-.019.11V34.13a.353.353,0,0,0,.02.111l0,.014a.357.357,0,0,0,.067.11l0,.006,0,0a.36.36,0,0,0,.038.033l.017.014a.33.33,0,0,0,.05.028l.012.007a.357.357,0,0,0,.14.029H27.108a.353.353,0,0,0,.14-.029l.019-.01a.364.364,0,0,0,.043-.024l.02-.017a.328.328,0,0,0,.034-.031l.006-.005s0,0,0-.007a.356.356,0,0,0,.065-.109A.131.131,0,0,0,27.446,34.239ZM7.678,22.3l6,5.484-6,5.528ZM19.984,27.52a.34.34,0,0,0-.072.053c-.008.009-.01.02-.017.029l-2.68,2.448-8.974-8.2H26.188Zm-5.773.752L16.974,30.8a.356.356,0,0,0,.481,0L20.184,28.3l6,5.47H8.235Zm6.5-.452L26.751,22.3V33.322Z" transform="translate(-6.964 -21.139)" fill="#cc8946"/>
</svg>
