<svg xmlns="http://www.w3.org/2000/svg" width="22.441" height="20.721" viewBox="0 0 22.441 20.721">
  <g id="iconfinder_5439767_animal_dog_pet_puppy_icon" transform="translate(-10.079 -19.118)">
    <path id="Path_621" data-name="Path 621" d="M78,95.144a1.445,1.445,0,1,0,.938,1.668A1.358,1.358,0,0,0,78,95.144Z" transform="translate(-60.032 -68.769)" fill="none" stroke="#cc8946" stroke-width="1"/>
    <path id="Path_622" data-name="Path 622" d="M153.757,95.144a1.445,1.445,0,1,0,1.539,1.137A1.358,1.358,0,0,0,153.757,95.144Z" transform="translate(-129.125 -68.769)" fill="none" stroke="#cc8946" stroke-width="1"/>
    <path id="Path_623" data-name="Path 623" d="M107.321,152.887c-1.2,0-2.175.539-2.175,1.2,0,.489.527.909,1.283,1.1a1.128,1.128,0,0,0,1.784,0c.756-.189,1.283-.609,1.283-1.1C109.5,153.426,108.522,152.887,107.321,152.887Z" transform="translate(-86.021 -121.041)" fill="none" stroke="#cc8946" stroke-width="1"/>
    <path id="Path_624" data-name="Path 624" d="M28.634,32.26a7.036,7.036,0,0,0,2.477-1.241L31.131,31a3.572,3.572,0,0,0,1.389-2.818,9.549,9.549,0,0,0-1.37-5.114,6.77,6.77,0,0,0-3.775-2.934,18.64,18.64,0,0,0-12.15,0,6.771,6.771,0,0,0-3.775,2.934,9.549,9.549,0,0,0-1.37,5.114c0,2.788,2.992,3.827,3.887,4.076a7.6,7.6,0,0,0,1.208,2.64,6.836,6.836,0,0,0,.646.771l-.993,3.689a.381.381,0,1,0,.735.2l.892-3.313A7.548,7.548,0,0,0,21.3,37.786a9.772,9.772,0,0,0,1.188-.07,4.069,4.069,0,0,0,.705,1.954.381.381,0,0,0,.632-.424,3.262,3.262,0,0,1-.584-1.657,6.958,6.958,0,0,0,2.905-1.345l.892,3.313a.381.381,0,0,0,.735-.2l-.993-3.689a6.827,6.827,0,0,0,.646-.771A7.6,7.6,0,0,0,28.634,32.26Zm.055-6.531a3.83,3.83,0,0,0,.513.466c1.657,1.246,1.422,3.674,1.33,4.3a6.258,6.258,0,0,1-1.844.954V25.729Zm3.07,2.455a2.625,2.625,0,0,1-.394,1.4,4.816,4.816,0,0,0-1.705-3.993c-1.612-1.212-1.322-3.484-1.2-4.142C30.526,22.674,31.759,25.133,31.759,28.184Zm-20.919,0c0-3.024,1.212-5.467,3.243-6.708.129.7.388,2.913-1.2,4.11a4.715,4.715,0,0,0-1.706,3.893A2.631,2.631,0,0,1,10.84,28.184Zm1.174,2.27c-.083-.495-.4-2.966,1.322-4.259a3.837,3.837,0,0,0,.574-.53v5.781A6.168,6.168,0,0,1,12.014,30.453ZM21.3,37.025a6.377,6.377,0,0,1-5.49-2.545,6.776,6.776,0,0,1-1.138-2.564v-7.5a.376.376,0,0,0-.006-.063,6.211,6.211,0,0,0,.12-3.245,6.007,6.007,0,0,1,.661-.246,17.886,17.886,0,0,1,11.707,0,5.981,5.981,0,0,1,.607.222,6.143,6.143,0,0,0,.168,3.416v7.413A6.775,6.775,0,0,1,26.79,34.48,6.377,6.377,0,0,1,21.3,37.025Z" fill="#cc8946"/>
  </g>
</svg>
