<svg xmlns="http://www.w3.org/2000/svg" width="24.819" height="21.559" viewBox="0 0 24.819 21.559">
  <g id="Icon_ionic-md-person-add" data-name="Icon ionic-md-person-add" transform="translate(0.5 0.5)">
    <path id="Path_86" data-name="Path 86" d="M17.214,14.78a4.936,4.936,0,0,0,4.67-5.14,4.936,4.936,0,0,0-4.67-5.14,4.936,4.936,0,0,0-4.67,5.14A4.936,4.936,0,0,0,17.214,14.78Zm0,2.57c-3.094,0-9.339,1.735-9.339,5.14v2.57H26.554V22.49C26.554,19.084,20.308,17.35,17.214,17.35Z" transform="translate(-2.735 -4.5)" fill="none" stroke="#bdc3c7" stroke-width="1"/>
    <path id="Path_87" data-name="Path 87" d="M6.265,14.677V11.25H4.552v3.427H1.125V16.39H4.552v3.427H6.265V16.39H9.691V14.677Z" transform="translate(-1.125 -6.11)" fill="none" stroke="#bdc3c7" stroke-width="1"/>
  </g>
</svg>
