<svg xmlns="http://www.w3.org/2000/svg" width="15.072" height="19.538" viewBox="0 0 15.072 19.538">
  <defs>
    <style>
      .cls-1 {
        opacity: 0.2;
      }
    </style>
  </defs>
  <g id="Group_13003" data-name="Group 13003" class="cls-1">
    <path id="Path_1919" data-name="Path 1919" d="M60.768,19.538a4.145,4.145,0,0,1-1.94-.358A2.917,2.917,0,0,1,57.195,16.8a7.506,7.506,0,0,1-.046-.848c0-1.9-.008-3.8,0-5.7a3.09,3.09,0,0,1,.695-2A2.932,2.932,0,0,1,59.97,7.164c.234-.017.3-.094.3-.321-.011-.828-.007-1.655,0-2.483a4.42,4.42,0,0,1,8.767-.739,3.66,3.66,0,0,1,.062.651q.011,1.3,0,2.6c0,.192.053.271.257.283a2.967,2.967,0,0,1,2.815,2.7c.027.282.045.565.045.848,0,1.891.014,3.782-.011,5.672a3.51,3.51,0,0,1-.239,1.229,2.8,2.8,0,0,1-2.651,1.879ZM64.7,8.394h0c-1.274,0-2.547,0-3.821,0-.267,0-.534.016-.8.043a1.7,1.7,0,0,0-1.638,1.725q-.033,3.164,0,6.328a1.691,1.691,0,0,0,1.4,1.694,3.761,3.761,0,0,0,.772.071q4,.008,8.007,0a6.219,6.219,0,0,0,.654-.042,1.712,1.712,0,0,0,1.653-1.764q.025-3.127,0-6.255A1.688,1.688,0,0,0,69.72,8.523a3.506,3.506,0,0,0-.934-.123C67.424,8.387,66.061,8.394,64.7,8.394ZM67.8,7.1c.005-.093.013-.173.013-.252q0-1.265,0-2.531A2.056,2.056,0,0,0,67.8,4a3.142,3.142,0,0,0-6.256.317c0,.844,0,1.687,0,2.531,0,.079.008.158.013.25Z" transform="translate(-57.145 0)"/>
    <path id="Path_1920" data-name="Path 1920" d="M217.395,288.513a1.88,1.88,0,0,1,0-.243.676.676,0,0,0-.364-.765,1.218,1.218,0,0,1-.444-1.466,1.306,1.306,0,0,1,2.49.135,1.247,1.247,0,0,1-.573,1.4.476.476,0,0,0-.275.517c.019.332.008.665,0,1a.412.412,0,0,1-.417.463c-.256,0-.412-.169-.422-.458,0-.008,0-.016,0-.024Q217.395,288.792,217.395,288.513Z" transform="translate(-210.279 -274.046)"/>
  </g>
</svg>
