<svg xmlns="http://www.w3.org/2000/svg" width="19.538" height="15.352" viewBox="0 0 19.538 15.352">
  <g id="mail-outline" transform="translate(0)" opacity="0.2">
    <g id="Path_1913" data-name="Path 1913" transform="translate(0)">
      <path id="Path_1921" data-name="Path 1921" d="M591.657,68.923H577a2.446,2.446,0,0,1-2.443-2.441V56.014A2.446,2.446,0,0,1,577,53.571h14.654a2.446,2.446,0,0,1,2.442,2.443V66.481A2.445,2.445,0,0,1,591.657,68.923ZM577,54.967a1.049,1.049,0,0,0-1.047,1.047V66.481A1.049,1.049,0,0,0,577,67.527h14.654a1.048,1.048,0,0,0,1.046-1.046V56.014a1.049,1.049,0,0,0-1.047-1.047Z" transform="translate(-574.56 -53.571)"/>
    </g>
    <g id="Path_1914" data-name="Path 1914" transform="translate(2.791 2.791)">
      <path id="Path_1922" data-name="Path 1922" d="M652.969,131.276a.7.7,0,0,1-.428-.147l-6.28-4.885a.7.7,0,1,1,.857-1.1l5.852,4.551,5.852-4.551a.7.7,0,1,1,.856,1.1l-6.28,4.885A.7.7,0,0,1,652.969,131.276Z" transform="translate(-645.991 -124.996)"/>
    </g>
  </g>
</svg>
