<svg xmlns="http://www.w3.org/2000/svg" width="42.331" height="32.151" viewBox="0 0 42.331 32.151">
  <g id="truck" transform="translate(0 -0.01)">
    <path id="Path_1299" data-name="Path 1299" d="M341.9,1109.768v-12.1a2.414,2.414,0,0,1,2.639-2.653h22.053a2.408,2.408,0,0,1,2.614,2.636c0,1.054.014,2.109-.008,3.162-.007.31.089.366.378.365,2.517-.012,5.034,0,7.55-.015a1.07,1.07,0,0,1,1.007.557q2.9,4.55,5.824,9.08a1.6,1.6,0,0,1,.274.912c-.01,3.462-.006,6.925-.006,10.387,0,.751-.206.956-.964.956-.725,0-1.451.008-2.175,0-.228,0-.329.034-.387.3a4.765,4.765,0,0,1-9.335,0c-.057-.267-.155-.3-.385-.3q-7.911.007-15.825,0c-.259,0-.342.065-.4.334a4.766,4.766,0,0,1-9.328-.021c-.055-.252-.13-.319-.375-.315-.768.016-1.535.009-2.3,0-.609,0-.846-.243-.846-.859Q341.9,1115.989,341.9,1109.768Z" transform="translate(-341.9 -1095.01)"/>
    <path id="Path_1300" data-name="Path 1300" d="M366.056,1124.16q-5.909,0-11.818.008c-.342,0-.456-.056-.45-.43q.02-7.715.01-15.432c0-.869.378-1.247,1.247-1.247h22.1c.844,0,1.231.383,1.231,1.22q0,7.738.009,15.475c0,.342-.1.413-.423.411Q372.006,1124.148,366.056,1124.16Z" transform="translate(-352.432 -1105.677)" fill="#cc8946"/>
    <path id="Path_1301" data-name="Path 1301" d="M366.148,1268.929q5.929,0,11.861-.009c.352,0,.443.079.439.437q-.03,3.012,0,6.026c0,.322-.076.395-.395.395q-6.121-.018-12.242,0c-.284,0-.4-.051-.469-.364a4.764,4.764,0,0,0-9.315.038c-.06.283-.164.332-.412.325-.5-.016-1-.014-1.493,0-.2,0-.263-.056-.263-.262q.012-3.163,0-6.326c0-.355.22-.254.393-.254h8.319Z" transform="translate(-352.496 -1249.077)" fill="#f4f4f4"/>
    <path id="Path_1302" data-name="Path 1302" d="M589.475,1161.559h-5.081c-.9,0-1.061.164-1.061,1.071v6.882c0,.728.211.94.936.94q5.118,0,10.236-.008c.342,0,.456.068.443.433-.027.943-.008.958-.948.939a2.323,2.323,0,0,0-1.847.588,2.05,2.05,0,0,0,1.341,3.514,11.574,11.574,0,0,0,1.193,0c.209-.008.262.063.26.265q-.012,1.8,0,3.59c0,.211-.067.263-.267.258-.526-.012-1.053-.015-1.577,0-.228.007-.268-.086-.314-.286a4.768,4.768,0,0,0-9.349.007c-.047.209-.1.285-.319.279-.511-.015-1.026-.018-1.535,0-.246.009-.307-.072-.3-.31.015-.8.006-1.6.006-2.4q0-8.013-.009-16.027c0-.355.082-.441.437-.439,2.247.018,4.494.028,6.739,0C588.975,1160.854,589.327,1160.963,589.475,1161.559Z" transform="translate(-553.979 -1153.34)" fill="#f4f4f4"/>
    <path id="Path_1303" data-name="Path 1303" d="M620.907,1185.072h-9.42c-.213,0-.258-.078-.257-.273q.008-2.8,0-5.6c0-.213.045-.3.279-.3,1.734.01,3.468.007,5.2,0a.36.36,0,0,1,.356.17C618.328,1181.055,619.6,1183.026,620.907,1185.072Z" transform="translate(-580.513 -1169.325)" fill="#c3e5fc"/>
    <path id="Path_1304" data-name="Path 1304" d="M390.627,1308.421a3.413,3.413,0,1,1-3.412-3.421A3.414,3.414,0,0,1,390.627,1308.421Z" transform="translate(-379.022 -1281.042)" fill="#2d2d30"/>
    <path id="Path_1305" data-name="Path 1305" d="M614.521,1311.762a3.421,3.421,0,1,1,3.421-3.41A3.422,3.422,0,0,1,614.521,1311.762Z" transform="translate(-580.398 -1280.971)" fill="#2d2d30"/>
    <path id="Path_1306" data-name="Path 1306" d="M684.86,1268.963c.8,0,.8,0,.8.788,0,.577,0,.578-.581.577-.269,0-.541.012-.809,0a.684.684,0,0,1,0-1.357A5.084,5.084,0,0,1,684.86,1268.963Z" transform="translate(-644.694 -1249.111)" fill="#fc4747"/>
    <path id="Path_1307" data-name="Path 1307" d="M494.973,1280.97h2.6c.509,0,.811.251.822.665s-.3.7-.828.7h-5.152c-.536,0-.844-.258-.842-.684s.309-.684.848-.684C493.27,1280.963,494.121,1280.97,494.973,1280.97Z" transform="translate(-474.5 -1259.749)"/>
    <path id="Path_1308" data-name="Path 1308" d="M523,1298.957c.342,0,.684-.012,1.02,0a.684.684,0,0,1,0,1.357q-1.04.024-2.081,0a.676.676,0,1,1,0-1.353c.354-.02.708,0,1.062,0Z" transform="translate(-500.804 -1275.683)"/>
    <path id="Path_1309" data-name="Path 1309" d="M601.011,1256.964c.325,0,.651-.008.976,0a.684.684,0,0,1,.73.668.674.674,0,0,1-.7.693c-.666.014-1.332.013-2,0a.673.673,0,0,1-.708-.684.683.683,0,0,1,.724-.674C600.359,1256.951,600.685,1256.964,601.011,1256.964Z" transform="translate(-569.953 -1238.48)"/>
    <path id="Path_1310" data-name="Path 1310" d="M399.874,1319.024a2.047,2.047,0,1,1-1.99-2.086A2.079,2.079,0,0,1,399.874,1319.024Z" transform="translate(-389.635 -1291.619)"/>
    <path id="Path_1311" data-name="Path 1311" d="M625.282,1321.043a2.052,2.052,0,0,1,.049-4.1,2.053,2.053,0,0,1-.049,4.106Z" transform="translate(-591.171 -1291.62)"/>
    <path id="Path_1312" data-name="Path 1312" d="M409.07,1329.615a.684.684,0,1,1-.684-.665A.684.684,0,0,1,409.07,1329.615Z" transform="translate(-400.198 -1302.261)" fill="#dddddf"/>
    <path id="Path_1313" data-name="Path 1313" d="M635.816,1330.278a.684.684,0,1,1,.684-.666A.684.684,0,0,1,635.816,1330.278Z" transform="translate(-601.69 -1302.225)" fill="#dddddf"/>
  </g>
</svg>
