<svg xmlns="http://www.w3.org/2000/svg" width="17.321" height="19.51" viewBox="0 0 17.321 19.51">
  <g id="User" opacity="0.2">
    <path id="Path_1911" data-name="Path 1911" d="M-728.2,140.833a5.2,5.2,0,0,0,5.2-5.2,5.2,5.2,0,0,0-5.2-5.2,5.2,5.2,0,0,0-5.2,5.2A5.2,5.2,0,0,0-728.2,140.833Zm0-9.19a4,4,0,0,1,3.994,3.993,4,4,0,0,1-3.994,3.994,4,4,0,0,1-3.994-3.994A4,4,0,0,1-728.2,131.643Z" transform="translate(736.911 -130.44)"/>
    <path id="Path_1912" data-name="Path 1912" d="M-810.039,426.99h-9.382a3.974,3.974,0,0,0-3.969,3.969,3.973,3.973,0,0,0,3.969,3.969h9.382a3.974,3.974,0,0,0,3.969-3.969A3.974,3.974,0,0,0-810.039,426.99Zm0,6.736h-9.382a2.769,2.769,0,0,1-2.766-2.766,2.77,2.77,0,0,1,2.766-2.767h9.382a2.77,2.77,0,0,1,2.767,2.767A2.77,2.77,0,0,1-810.039,433.726Z" transform="translate(823.39 -415.419)"/>
  </g>
</svg>
