<svg width="36" height="36" viewBox="0 0 36 36" fill="none" xmlns="http://www.w3.org/2000/svg">
<path d="M0.599977 23.999C0.920602 23.9987 1.24102 24.0147 1.55995 24.047C2.66231 24.1678 3.72298 24.5371 4.66193 25.127C6.05053 25.9949 7.66287 26.4371 9.29995 26.3991C10.5854 26.4376 11.8613 26.1663 13.02 25.6083C13.338 25.4583 13.6374 25.2902 13.9373 25.1282C15.1476 24.3578 16.5596 23.9646 17.994 23.999C19.4299 23.9637 20.8439 24.3563 22.056 25.127C23.4465 25.9957 25.0609 26.4379 26.7 26.3991C27.2403 26.4032 27.7801 26.3631 28.314 26.279C29.3856 26.0891 30.4116 25.6983 31.338 25.127C32.55 24.3563 33.9641 23.9637 35.4 23.999C35.7314 23.999 36 23.7304 36 23.399C36 23.0677 35.7314 22.7991 35.4 22.7991C33.763 22.761 32.1506 23.2032 30.762 24.0711C30.498 24.2151 30.24 24.3591 29.97 24.4911L35.712 17.5791C36.016 17.2219 36.0839 16.7203 35.886 16.2951C35.6945 15.8679 35.2682 15.5946 34.8 15.5991H29.598L26.436 13.301L23.268 10.997L22.968 10.391C22.3613 9.1673 21.1118 8.39478 19.746 8.399H13.5708L12.9708 7.19898H16.2C16.5314 7.19898 16.8 6.93031 16.8 6.599C16.8 6.26769 16.5314 5.99902 16.2 5.99902H9.59998C9.26859 5.99902 9 6.26762 9 6.599C9 6.93038 9.26859 7.19898 9.59998 7.19898H11.6292L12.2292 8.399H9.59998C8.6059 8.399 7.79998 9.20485 7.79998 10.199C7.79998 11.1931 8.60583 11.999 9.59998 11.999H10.434L8.63395 15.599H8.1C7.72228 15.599 7.36664 15.7768 7.14002 16.079L5.70002 17.999H4.66798C4.46358 17.9977 4.27296 18.1021 4.16398 18.275L1.24798 22.817C1.044 22.805 0.828 22.799 0.599977 22.799C0.268594 22.799 0 23.0676 0 23.399C0 23.7304 0.268594 23.999 0.599977 23.999ZM24.6 18.599C24.6 18.9304 24.3314 19.199 24 19.199C23.6687 19.199 23.4001 18.9304 23.4001 18.599V16.799H24.6001V18.599H24.6ZM28.2 16.805H29.4V18.599C29.4 18.9304 29.1315 19.199 28.8001 19.199C28.4687 19.199 28.2001 18.9304 28.2001 18.599V16.805H28.2ZM27 16.799V18.599C27 18.9304 26.7314 19.199 26.4 19.199C26.0686 19.199 25.8 18.9304 25.8 18.599V16.799H27ZM15.6 11.999H16.8V12.599C16.8 12.9304 17.0686 13.199 17.4 13.199H24.252L25.9021 14.399H17.4C16.4071 14.396 15.603 13.5919 15.6 12.599V11.999ZM8.1 16.799H20.4V17.399C20.4 17.7304 20.1314 17.999 19.8 17.999H7.2L8.1 16.799Z" fill="#B1A9A9"/>
<path d="M35.4 26.3988C33.7617 26.3604 32.148 26.8035 30.759 27.6733C29.547 28.4413 28.1346 28.833 26.7 28.7989C25.2648 28.8336 23.8513 28.4418 22.6387 27.6733C21.249 26.8031 19.6344 26.36 17.9953 26.3988C16.3579 26.3604 14.7452 26.8036 13.3573 27.6733C12.146 28.4415 10.734 28.8333 9.30009 28.7989C7.86516 28.8335 6.45216 28.4418 5.2399 27.6733C3.85144 26.8034 2.23812 26.3602 0.600117 26.3988C0.268594 26.3988 0 26.6674 0 26.9988C0 27.3302 0.268594 27.5988 0.599977 27.5988C2.0347 27.5643 3.44749 27.956 4.65961 28.7244C6.04828 29.5944 7.66181 30.0375 9.30002 29.9988C10.9375 30.0374 12.5503 29.5941 13.938 28.7239C15.1495 27.956 16.5613 27.5645 17.9952 27.5989C19.4305 27.5642 20.8439 27.9559 22.0566 28.7245C23.4463 29.5947 25.0609 30.0378 26.7 29.9989C28.3383 30.0374 29.952 29.5943 31.341 28.7245C32.553 27.9564 33.9654 27.5648 35.4 27.5989C35.7313 27.5989 35.9999 27.3303 35.9999 26.9989C35.9999 26.6675 35.7314 26.3988 35.4 26.3988Z" fill="#B1A9A9"/>
</svg>
