<svg width="36" height="36" viewBox="0 0 36 36" fill="none" xmlns="http://www.w3.org/2000/svg">
<path d="M8.4375 16.5938C7.71436 16.5937 7.00747 16.8082 6.4062 17.2099C5.80493 17.6117 5.3363 18.1827 5.05957 18.8508C4.78283 19.5189 4.71043 20.2541 4.85151 20.9633C4.99258 21.6725 5.34081 22.324 5.85214 22.8354C6.36348 23.3467 7.01496 23.6949 7.7242 23.836C8.43345 23.9771 9.1686 23.9047 9.83669 23.6279C10.5048 23.3512 11.0758 22.8826 11.4776 22.2813C11.8793 21.68 12.0938 20.9731 12.0938 20.25C12.0927 19.2806 11.7071 18.3513 11.0216 17.6659C10.3362 16.9804 9.40686 16.5948 8.4375 16.5938ZM8.4375 21.9375C8.10375 21.9375 7.77748 21.8385 7.49998 21.6531C7.22247 21.4677 7.00618 21.2041 6.87845 20.8958C6.75073 20.5874 6.71731 20.2481 6.78243 19.9208C6.84754 19.5934 7.00826 19.2928 7.24426 19.0568C7.48026 18.8208 7.78094 18.66 8.10829 18.5949C8.43563 18.5298 8.77493 18.5632 9.08328 18.691C9.39163 18.8187 9.65518 19.035 9.84061 19.3125C10.026 19.59 10.125 19.9162 10.125 20.25C10.125 20.6976 9.94721 21.1268 9.63074 21.4432C9.31428 21.7597 8.88505 21.9375 8.4375 21.9375Z" fill="#B1A9A9"/>
<path d="M28.6875 16.5938C27.9644 16.5937 27.2575 16.8082 26.6562 17.2099C26.0549 17.6117 25.5863 18.1827 25.3096 18.8508C25.0328 19.5189 24.9604 20.2541 25.1015 20.9633C25.2426 21.6725 25.5908 22.324 26.1021 22.8354C26.6135 23.3467 27.265 23.6949 27.9742 23.836C28.6834 23.9771 29.4186 23.9047 30.0867 23.6279C30.7548 23.3512 31.3258 22.8826 31.7276 22.2813C32.1293 21.68 32.3438 20.9731 32.3438 20.25C32.3427 19.2806 31.9571 18.3513 31.2716 17.6659C30.5862 16.9804 29.6569 16.5948 28.6875 16.5938ZM28.6875 21.9375C28.3537 21.9375 28.0275 21.8385 27.75 21.6531C27.4725 21.4677 27.2562 21.2041 27.1285 20.8958C27.0007 20.5874 26.9673 20.2481 27.0324 19.9208C27.0975 19.5934 27.2583 19.2928 27.4943 19.0568C27.7303 18.8208 28.0309 18.66 28.3583 18.5949C28.6856 18.5298 29.0249 18.5632 29.3333 18.691C29.6416 18.8187 29.9052 19.035 30.0906 19.3125C30.276 19.59 30.375 19.9162 30.375 20.25C30.375 20.6976 30.1972 21.1268 29.8807 21.4432C29.5643 21.7597 29.1351 21.9375 28.6875 21.9375Z" fill="#B1A9A9"/>
<path d="M33.5672 13.5731L27 12.375L21.4091 7.73614C20.855 7.28098 20.1603 7.03189 19.4432 7.03126H11.2064C10.7422 7.03016 10.2838 7.13403 9.86547 7.33511C9.44711 7.53618 9.07964 7.82925 8.79054 8.1924L5.21944 12.375H2.8125C2.1414 12.3758 1.498 12.6427 1.02346 13.1172C0.548918 13.5918 0.281994 14.2352 0.28125 14.9063V18C0.282162 18.8202 0.608403 19.6066 1.1884 20.1866C1.76839 20.7666 2.55477 21.0928 3.375 21.0938H4.01801C3.8932 20.4429 3.91371 19.7724 4.07808 19.1303C4.24245 18.4883 4.54661 17.8905 4.96883 17.3796C5.39105 16.8687 5.92091 16.4574 6.52053 16.1751C7.12015 15.8928 7.77473 15.7464 8.4375 15.7464C9.10027 15.7464 9.75485 15.8928 10.3545 16.1751C10.9541 16.4574 11.4839 16.8687 11.9062 17.3796C12.3284 17.8905 12.6326 18.4883 12.7969 19.1303C12.9613 19.7724 12.9818 20.4429 12.857 21.0938H24.268C24.1432 20.4429 24.1637 19.7724 24.3281 19.1303C24.4924 18.4883 24.7966 17.8905 25.2188 17.3796C25.6411 16.8687 26.1709 16.4574 26.7705 16.1751C27.3702 15.8928 28.0247 15.7464 28.6875 15.7464C29.3503 15.7464 30.0048 15.8928 30.6045 16.1751C31.2041 16.4574 31.7339 16.8687 32.1562 17.3796C32.5784 17.8905 32.8825 18.4883 33.0469 19.1303C33.2113 19.7724 33.2318 20.4429 33.107 21.0938H33.1875C33.8586 21.093 34.502 20.8261 34.9765 20.3516C35.4511 19.877 35.718 19.2336 35.7188 18.5625V16.0757C35.7218 15.4693 35.5058 14.8823 35.1105 14.4225C34.7152 13.9627 34.1671 13.6611 33.5672 13.5731ZM12.6562 11.5313C12.6562 11.755 12.5674 11.9696 12.4091 12.1279C12.2509 12.2861 12.0363 12.375 11.8125 12.375H8.10316C8.0225 12.3751 7.94351 12.352 7.87556 12.3085C7.80761 12.265 7.75355 12.203 7.71979 12.1297C7.68602 12.0565 7.67397 11.9751 7.68505 11.8952C7.69614 11.8153 7.7299 11.7402 7.78233 11.6789L10.2374 8.80313C10.3166 8.71046 10.415 8.63608 10.5258 8.5851C10.6366 8.53412 10.7571 8.50775 10.879 8.50782H11.8125C12.0363 8.50782 12.2509 8.59672 12.4091 8.75495C12.5674 8.91318 12.6562 9.12779 12.6562 9.35157V11.5313ZM16.875 15.4688H15.75C15.5262 15.4688 15.3116 15.3799 15.1534 15.2216C14.9951 15.0634 14.9062 14.8488 14.9062 14.625C14.9062 14.4012 14.9951 14.1866 15.1534 14.0284C15.3116 13.8702 15.5262 13.7813 15.75 13.7813H16.875C17.0988 13.7813 17.3134 13.8702 17.4716 14.0284C17.6299 14.1866 17.7188 14.4012 17.7188 14.625C17.7188 14.8488 17.6299 15.0634 17.4716 15.2216C17.3134 15.3799 17.0988 15.4688 16.875 15.4688ZM23.5181 12.3957L15.4668 12.377C15.2433 12.3765 15.0292 12.2873 14.8714 12.1292C14.7136 11.971 14.625 11.7567 14.625 11.5332V9.35157C14.625 9.12779 14.7139 8.91318 14.8721 8.75495C15.0304 8.59672 15.245 8.50782 15.4688 8.50782H19.5151C19.7047 8.50784 19.8889 8.57174 20.0377 8.68923L23.7803 11.6424C23.8493 11.6967 23.8996 11.7712 23.9243 11.8554C23.9489 11.9397 23.9466 12.0296 23.9177 12.1125C23.8889 12.1954 23.8349 12.2673 23.7632 12.318C23.6916 12.3688 23.6059 12.3959 23.5181 12.3957Z" fill="#B1A9A9"/>
</svg>
