<svg xmlns="http://www.w3.org/2000/svg" width="18.034" height="19.995" viewBox="0 0 18.034 19.995">
  <path id="cat" d="M16.231,8.37A2.243,2.243,0,0,0,14.1,6.848H12.3V1.515l-.757.108A5.4,5.4,0,0,0,7.569,4.211,8.525,8.525,0,0,0,6.453,7.317a9.716,9.716,0,0,0-2.56,3.118A17.236,17.236,0,0,0,2.419,14.28a23.562,23.562,0,0,0-.731,4.56v2.348H3.015V18.881c.017-.341.435-7.809,4.438-10.654l.235-.167.038-.285c.2-1.477.889-3.917,3.25-4.666V8.175H14.1a.917.917,0,0,1,.871.621c.529,1.562,1.438,3.515,2.854,4.433l-.426,1.6a2.6,2.6,0,0,1-2.593,1.944,12.567,12.567,0,0,0-3.677.461l-.49.133v3.824h1.327v-2.8a11,11,0,0,1,2.8-.291,3.938,3.938,0,0,0,3.915-2.928l.709-2.657-.528-.226c-.987-.423-1.922-1.813-2.635-3.915Z" transform="translate(-1.538 -1.342)" fill="#cc8946" stroke="#fff" stroke-width="0.3"/>
</svg>
