<svg xmlns="http://www.w3.org/2000/svg" width="20.204" height="18.622" viewBox="0 0 20.204 18.622">
  <path id="dog" d="M16.771,8.252l-2.437-3.52a1.994,1.994,0,0,0-1.608-.858L8.1,3.808H8.092c-2.388,0-4.22.4-5.4,2.348-1.1,1.815-1.568,4.9-1.568,10.334v.663H2.641L1.665,22.13H3.018l.976-4.976h.449a4.127,4.127,0,0,0,2.906-1.161,5.4,5.4,0,0,0,1.468-2.665l0-.009L9.958,7.866H8.6L7.524,13.028a3.294,3.294,0,0,1-3.082,2.8H2.454c.036-4.7.464-7.482,1.373-8.983.763-1.26,1.878-1.708,4.26-1.709l4.62.067a.665.665,0,0,1,.536.286L16,9.468l3.7.617v.7l-.617,3.293c-.182.972-.494,1.461-1.772,1.615l-5.238.9-.034,5.537h1.327l.028-4.416,4.093-.7A3.335,3.335,0,0,0,19.58,16.1a3.285,3.285,0,0,0,.809-1.773l.64-3.415V8.962Z" transform="translate(-0.975 -3.658)" fill="#cc8946" stroke="#fff" stroke-width="0.3"/>
</svg>
