<svg xmlns="http://www.w3.org/2000/svg" width="21.394" height="22.892" viewBox="0 0 21.394 22.892">
  <g id="Group_55" data-name="Group 55" transform="translate(-781.536 -1461.723)">
    <path id="Path_281" data-name="Path 281" d="M801.052,1466.1a.659.659,0,0,0-.059-.053l-6.413-5.121a3.362,3.362,0,0,0-4.695,0l-6.412,5.121c-.02.017-.04.034-.059.053a5.524,5.524,0,0,0-1.628,3.931v6.906a5.434,5.434,0,0,0,5.428,5.427h10.039a5.433,5.433,0,0,0,5.427-5.427v-6.906A5.523,5.523,0,0,0,801.052,1466.1Zm.208,10.837a4.012,4.012,0,0,1-4.007,4.008H787.214a4.013,4.013,0,0,1-4.008-4.008v-6.906a4.111,4.111,0,0,1,1.186-2.9l6.409-5.118a.745.745,0,0,0,.059-.053,1.942,1.942,0,0,1,2.746,0,.733.733,0,0,0,.059.053l6.41,5.118a4.111,4.111,0,0,1,1.185,2.9Z" transform="translate(0 2)" fill="#cc8946" stroke="#fff" stroke-width="0.5"/>
    <path id="Path_282" data-name="Path 282" d="M802.739,1495.729h-5.89a.71.71,0,1,0,0,1.42h5.89a.71.71,0,1,0,0-1.42Z" transform="translate(-7.561 -18.745)" fill="#cc8946" stroke="#fff" stroke-width="0.5"/>
  </g>
</svg>
