<svg width="20" height="20" viewBox="0 0 20 20" fill="none" xmlns="http://www.w3.org/2000/svg">
<path fill-rule="evenodd" clip-rule="evenodd" d="M14.3025 0.75H5.65051C2.63851 0.75 0.749512 2.884 0.749512 5.904V14.05C0.749512 17.07 2.63051 19.204 5.65051 19.204H14.2975C17.3225 19.204 19.2025 17.07 19.2025 14.05V5.904C19.2065 2.884 17.3255 0.75 14.3025 0.75Z" stroke="#B1A9A9" stroke-width="1.5" stroke-linecap="round" stroke-linejoin="round"/>
<path fill-rule="evenodd" clip-rule="evenodd" d="M8.70274 6.78496C8.70274 7.80496 7.87674 8.63096 6.85674 8.63096C5.83774 8.63096 5.01074 7.80496 5.01074 6.78496C5.01074 5.76496 5.83774 4.93896 6.85674 4.93896C7.87574 4.93996 8.70174 5.76596 8.70274 6.78496Z" stroke="#B1A9A9" stroke-width="1.5" stroke-linecap="round" stroke-linejoin="round"/>
<path d="M19.207 12.951C18.284 12.001 16.509 10.082 14.579 10.082C12.648 10.082 11.535 14.315 9.678 14.315C7.821 14.315 6.134 12.401 4.646 13.628C3.158 14.854 1.75 17.361 1.75 17.361" stroke="#B1A9A9" stroke-width="1.5" stroke-linecap="round" stroke-linejoin="round"/>
</svg>
