<svg xmlns="http://www.w3.org/2000/svg" width="27.269" height="20.862" viewBox="0 0 27.269 20.862">
  <g id="noun_Home_1279455" transform="translate(7.593 -0.522)">
    <g id="Group_68" data-name="Group 68" transform="translate(3 0.522)">
      <path id="Path_319" data-name="Path 319" d="M637.555,1467.226a5.3,5.3,0,1,0-5.3-5.3A5.3,5.3,0,0,0,637.555,1467.226Zm0-9.4a4.108,4.108,0,1,1-4.108,4.108A4.112,4.112,0,0,1,637.555,1457.822Z" transform="translate(-629.217 -1456.633)" fill="#959595"/>
      <path id="Path_320" data-name="Path 320" d="M637.482,1489.247h-9.118a3.783,3.783,0,0,0-3.779,3.779v.377a3.784,3.784,0,0,0,3.779,3.779h9.118a3.784,3.784,0,0,0,3.779-3.779v-.377A3.783,3.783,0,0,0,637.482,1489.247Zm2.59,4.156a2.593,2.593,0,0,1-2.59,2.59h-9.118a2.593,2.593,0,0,1-2.59-2.59v-.377a2.593,2.593,0,0,1,2.59-2.59h9.118a2.593,2.593,0,0,1,2.59,2.59Z" transform="translate(-624.585 -1476.32)" fill="#959595"/>
      <path id="plus" d="M10.385,10.385V14.5a.589.589,0,1,1-1.177,0v-4.12H5.089a.589.589,0,1,1,0-1.177h4.12V5.089a.589.589,0,1,1,1.177,0v4.12H14.5a.589.589,0,1,1,0,1.177Z" transform="translate(-15.093 -4.5)" fill="#959595" fill-rule="evenodd"/>
    </g>
  </g>
</svg>
