<svg xmlns="http://www.w3.org/2000/svg" width="19.3" height="19.3" viewBox="0 0 19.3 19.3">
  <g id="bx-message-square-detail" transform="translate(-2.6 -2.6)">
    <path id="Path_2000" data-name="Path 2000" d="M15.95,3H8.55A5.556,5.556,0,0,0,3,8.55V20.575a.925.925,0,0,0,.925.925H15.95a5.556,5.556,0,0,0,5.55-5.55V8.55A5.556,5.556,0,0,0,15.95,3Zm3.7,12.95a3.7,3.7,0,0,1-3.7,3.7H4.85V8.55a3.7,3.7,0,0,1,3.7-3.7h7.4a3.7,3.7,0,0,1,3.7,3.7Z" transform="translate(0 0)" fill="#cc8946" stroke="#fff" stroke-width="0.8"/>
    <path id="Path_2001" data-name="Path 2001" d="M10.5,13.5h9.25v1.85H10.5Zm0,3.7h6.475v1.85H10.5Z" transform="translate(-2.875 -4.025)" fill="#cc8946" stroke="#fff" stroke-width="0.8"/>
  </g>
</svg>
