<svg xmlns="http://www.w3.org/2000/svg" width="25.776" height="22.526" viewBox="0 0 25.776 22.526">
  <g id="Group_13103" data-name="Group 13103" transform="translate(-257 -289.057)">
    <path id="Path_1993" data-name="Path 1993" d="M257,390.841a9.156,9.156,0,0,1,.245-.917,2.98,2.98,0,0,1,4.441-1.533,4.014,4.014,0,0,1,1.491,5.208,2.971,2.971,0,0,1-4.18,1.137,4,4,0,0,1-1.953-2.927A.56.56,0,0,0,257,391.7Zm5.1.871a2.456,2.456,0,0,0-1.223-2.044,1.471,1.471,0,0,0-2.179.7,2.534,2.534,0,0,0,1.042,3.063,1.474,1.474,0,0,0,1.851-.2A2.042,2.042,0,0,0,262.1,391.712Z" transform="translate(0 -93.883)" fill="#959595"/>
    <path id="Path_1994" data-name="Path 1994" d="M640.516,463.59a9.284,9.284,0,0,1-.557,1.543,3.665,3.665,0,0,1-3.1,1.982A2.894,2.894,0,0,1,633.8,464.8a3.968,3.968,0,0,1,3.785-4.727,2.95,2.95,0,0,1,2.884,2.524,1.892,1.892,0,0,0,.049.191ZM639,463.211a1.513,1.513,0,0,0-2.082-1.535,2.552,2.552,0,0,0-1.7,2.347,1.508,1.508,0,0,0,2.021,1.519A2.58,2.58,0,0,0,639,463.211Z" transform="translate(-357.739 -162.403)" fill="#959595"/>
    <path id="Path_1995" data-name="Path 1995" d="M329.811,470.77a6.169,6.169,0,0,1,5.132,2.742q1.561,2.283,2.988,4.656a3.944,3.944,0,0,1-2.5,5.864,3.72,3.72,0,0,1-2.321-.15,8.55,8.55,0,0,0-3.67-.716,8.688,8.688,0,0,0-2.9.68,3.956,3.956,0,0,1-5.263-2.4,3.6,3.6,0,0,1,.257-3.112c1.053-1.733,2.117-3.467,3.3-5.109A6.025,6.025,0,0,1,329.811,470.77Zm7.157,9.453a2.13,2.13,0,0,0-.3-1.218c-1.022-1.6-2-3.242-3.095-4.795a4.7,4.7,0,0,0-7.583,0c-1.075,1.516-2.035,3.115-3.036,4.684a2.307,2.307,0,0,0-.271,1.957,2.472,2.472,0,0,0,3.356,1.586,15.2,15.2,0,0,1,2.212-.643,8.146,8.146,0,0,1,3.715.129c.6.156,1.177.381,1.763.582A2.45,2.45,0,0,0,336.969,480.223Z" transform="translate(-60.828 -172.565)" fill="#959595"/>
    <path id="Path_1996" data-name="Path 1996" d="M384.934,297.675a3.622,3.622,0,0,1-3-2.106,4.752,4.752,0,0,1,.54-5.211,3.486,3.486,0,0,1,5.623.263,4.725,4.725,0,0,1-.443,6A3.562,3.562,0,0,1,384.934,297.675Zm-2.017-4.5a3.36,3.36,0,0,0,.62,2.117,1.97,1.97,0,0,0,2.955.353,3.192,3.192,0,0,0,.016-4.55,1.873,1.873,0,0,0-2.382-.2A2.78,2.78,0,0,0,382.917,293.179Z" transform="translate(-118.132 0)" fill="#959595"/>
    <path id="Path_1997" data-name="Path 1997" d="M548.259,332.906a4.324,4.324,0,0,1-1.906,3.619,3.179,3.179,0,0,1-4.926-1.641,4.324,4.324,0,0,1,2.1-5.22,3.192,3.192,0,0,1,4.451,1.8,4.119,4.119,0,0,1,.194.675C548.221,332.4,548.234,332.671,548.259,332.906Zm-1.51-.069a6.533,6.533,0,0,0-.183-.816,1.67,1.67,0,0,0-2.383-.987,2.834,2.834,0,0,0-1.313,3.421,1.669,1.669,0,0,0,2.5.9A2.849,2.849,0,0,0,546.75,332.837Z" transform="translate(-269.885 -38.239)" fill="#959595"/>
  </g>
</svg>
